<svg xmlns="http://www.w3.org/2000/svg" width="200" height="180" viewBox="0 0 200 180" xmlns:c2pa="http://c2pa.org/manifest"><metadata><c2pa:manifest>AAAWgmp1bWIAAAAeanVtZGMycGEAEQAQgAAAqgA4m3EDYzJwYQAAABZcanVtYgAAAEdqdW1kYzJtYQARABCAAACqADibcQN1cm46YzJwYTpmZDJhOTI4MS1iMTA2LTQ0YjYtYTRjNC1kNjQ4MGVhNDU2ZjMAAAADl2p1bWIAAAApanVtZGMyYXMAEQAQgAAAqgA4m3EDYzJwYS5hc3NlcnRpb25zAAAAALxqdW1iAAAARGp1bWRjYm9yABEAEIAAAKoAOJtxE2MycGEuaW5ncmVkaWVudC52MwAAAAAYYzJzaDJ/e407QXoiScAw1ldxfz8AAABwY2JvcqNpZGM6Zm9ybWF0bWltYWdlL3N2Zyt4bWxqaW5zdGFuY2VJRHgseG1wOmlpZDo4NGIwMTVlZi1kNDY2LTQ1NTQtYTM0MC02YWQ0MDM2ZjY1OGVscmVsYXRpb25zaGlwaHBhcmVudE9mAAAB4mp1bWIAAABBanVtZGNib3IAEQAQgAAAqgA4m3ETYzJwYS5hY3Rpb25zLnYyAAAAABhjMnNoE69FqPetEiGOj3FuSkzq4AAAAZljYm9yomdhY3Rpb25zgqJmYWN0aW9ua2MycGEub3BlbmVkanBhcmFtZXRlcnOha2luZ3JlZGllbnRzgaJjdXJseC1zZWxmI2p1bWJmPWMycGEuYXNzZXJ0aW9ucy9jMnBhLmluZ3JlZGllbnQudjNkaGFzaFggLJVDnmYF22HDSXvwGplw6RjUBMDRfWA8sfWKoPBFb0CkZmFjdGlvbngdY29tLmFudGhyb3BpYy5jbGF1ZGUucHJvdmlkZWRqcGFyYW1ldGVyc6F4H2NvbS5hbnRocm9waWMub3JpZ2luLWNvbmZpZGVuY2VndW5rbm93bmtkZXNjcmlwdGlvbnhmQ2xhdWRlIHByb3ZpZGVkIHRoaXMgZmlsZSBhdCB0aGUgcmVxdWVzdCBvZiBhIHVzZXIgYW5kIG1heSBoYXZlIGNyZWF0ZWQgb3IgbW9kaWZpZWQgdGhlIGZpbGUgY29udGVudHMubXNvZnR3YXJlQWdlbnShZG5hbWVmQ2xhdWRlcmFsbEFjdGlvbnNJbmNsdWRlZPUAAADIanVtYgAAAEBqdW1kY2JvcgARABCAAACqADibcRNjMnBhLmhhc2guZGF0YQAAAAAYYzJzaGdgISWVgOIdpeKYN9nlXSIAAACAY2JvcqVjYWxnZnNoYTI1NmNwYWRNAAAAAAAAAAAAAAAAAGRoYXNoWCCSAgfyctleL89wt8mHa98HjLGAu58+PDBdfBNws3nGgGRuYW1lbmp1bWJmIG1hbmlmZXN0amV4Y2x1c2lvbnOBomVzdGFydBiWZmxlbmd0aBkeBAAAAj5qdW1iAAAAJ2p1bWRjMmNsABEAEIAAAKoAOJtxA2MycGEuY2xhaW0udjIAAAACD2Nib3KlY2FsZ2ZzaGEyNTZpc2lnbmF0dXJleE1zZWxmI2p1bWJmPS9jMnBhL3VybjpjMnBhOmZkMmE5MjgxLWIxMDYtNDRiNi1hNGM0LWQ2NDgwZWE0NTZmMy9jMnBhLnNpZ25hdHVyZWppbnN0YW5jZUlEeCx4bXA6aWlkOmY0ZmYzNjNmLWJhYzAtNGEzMy04YjQxLWE3MzFhNDFlZmUxYnJjcmVhdGVkX2Fzc2VydGlvbnODomN1cmx4LXNlbGYjanVtYmY9YzJwYS5hc3NlcnRpb25zL2MycGEuaW5ncmVkaWVudC52M2RoYXNoWCAslUOeZgXbYcNJe/AamXDpGNQEwNF9YDyx9Yqg8EVvQKJjdXJseCpzZWxmI2p1bWJmPWMycGEuYXNzZXJ0aW9ucy9jMnBhLmFjdGlvbnMudjJkaGFzaFgg00vk986BCmnXcJBS7ZEPz3W4R6mTcDubpIRszDKR/AGiY3VybHgpc2VsZiNqdW1iZj1jMnBhLmFzc2VydGlvbnMvYzJwYS5oYXNoLmRhdGFkaGFzaFggnkf7TNx5LXSzXCLjCyFhphJnzFfCqHqqCTdQwK+U8IF0Y2xhaW1fZ2VuZXJhdG9yX2luZm+jZG5hbWVvQW50aHJvcGljIEZpbGVzZ3ZlcnNpb25lMS4wLjBrc3BlY1ZlcnNpb25lMi40LjAAABA4anVtYgAAAChqdW1kYzJjcwARABCAAACqADibcQNjMnBhLnNpZ25hdHVyZQAAABAIY2JvctKEWQISogEmGCFZAgowggIGMIIBjaADAgECAhRA5aAK7sI50L64g/oGQgU9Z1UTADAKBggqhkjOPQQDAzBJMRcwFQYDVQQKEw5BbnRocm9waWMsIFBCQzEuMCwGA1UEAxMlQW50aHJvcGljIENvbnRlbnQgQ3JlZGVudGlhbHMgUm9vdCBDQTAeFw0yNjA4MDcxODQzNTZaFw0yODA4MDYxOTQzNTZaMEQxFzAVBgNVBAoTDkFudGhyb3BpYywgUEJDMSkwJwYDVQQDEyBBbnRocm9waWMgQ2xhdWRlIENvbnRlbnQgU2lnbmluZzBZMBMGByqGSM49AgEGCCqGSM49AwEHA0IABJh6CmvLUBgFFNU0vUKlOVtE6djd17L5SuwX0LemFisBM3dkd/3cyjxFA3Qo5S46fX0/ihY0VZ7mfb9KF703t5OjWDBWMA4GA1UdDwEB/wQEAwIHgDAVBgNVHSUEDjAMBgorBgEEAYPoXgIBMAwGA1UdEwEB/wQCMAAwHwYDVR0jBBgwFoAUzlHiBIFOZFsj+OPEz5o+nMHXXMIwCgYIKoZIzj0EAwMDZwAwZAIwMXMdFJ4BetLLVY7ORuE9noqbbAZOZn/aArXyTwFAZfKrPzxF2vPoJNf1+UCdg1XGAjBwX1zd9WGqYkqmL5SFqw1QySjr1zJfpJM9+1rdDwSPLMOPOjKuiXjoU/pUUeG9RwmhY3BhZFkNngAAAAAAAAAAAAAAAAAAAAAAAAAAAAAAAAAAAAAAAAAAAAAAAAAAAAAAAAAAAAAAAAAAAAAAAAAAAAAAAAAAAAAAAAAAAAAAAAAAAAAAAAAAAAAAAAAAAAAAAAAAAAAAAAAAAAAAAAAAAAAAAAAAAAAAAAAAAAAAAAAAAAAAAAAAAAAAAAAAAAAAAAAAAAAAAAAAAAAAAAAAAAAAAAAAAAAAAAAAAAAAAAAAAAAAAAAAAAAAAAAAAAAAAAAAAAAAAAAAAAAAAAAAAAAAAAAAAAAAAAAAAAAAAAAAAAAAAAAAAAAAAAAAAAAAAAAAAAAAAAAAAAAAAAAAAAAAAAAAAAAAAAAAAAAAAAAAAAAAAAAAAAAAAAAAAAAAAAAAAAAAAAAAAAAAAAAAAAAAAAAAAAAAAAAAAAAAAAAAAAAAAAAAAAAAAAAAAAAAAAAAAAAAAAAAAAAAAAAAAAAAAAAAAAAAAAAAAAAAAAAAAAAAAAAAAAAAAAAAAAAAAAAAAAAAAAAAAAAAAAAAAAAAAAAAAAAAAAAAAAAAAAAAAAAAAAAAAAAAAAAAAAAAAAAAAAAAAAAAAAAAAAAAAAAAAAAAAAAAAAAAAAAAAAAAAAAAAAAAAAAAAAAAAAAAAAAAAAAAAAAAAAAAAAAAAAAAAAAAAAAAAAAAAAAAAAAAAAAAAAAAAAAAAAAAAAAAAAAAAAAAAAAAAAAAAAAAAAAAAAAAAAAAAAAAAAAAAAAAAAAAAAAAAAAAAAAAAAAAAAAAAAAAAAAAAAAAAAAAAAAAAAAAAAAAAAAAAAAAAAAAAAAAAAAAAAAAAAAAAAAAAAAAAAAAAAAAAAAAAAAAAAAAAAAAAAAAAAAAAAAAAAAAAAAAAAAAAAAAAAAAAAAAAAAAAAAAAAAAAAAAAAAAAAAAAAAAAAAAAAAAAAAAAAAAAAAAAAAAAAAAAAAAAAAAAAAAAAAAAAAAAAAAAAAAAAAAAAAAAAAAAAAAAAAAAAAAAAAAAAAAAAAAAAAAAAAAAAAAAAAAAAAAAAAAAAAAAAAAAAAAAAAAAAAAAAAAAAAAAAAAAAAAAAAAAAAAAAAAAAAAAAAAAAAAAAAAAAAAAAAAAAAAAAAAAAAAAAAAAAAAAAAAAAAAAAAAAAAAAAAAAAAAAAAAAAAAAAAAAAAAAAAAAAAAAAAAAAAAAAAAAAAAAAAAAAAAAAAAAAAAAAAAAAAAAAAAAAAAAAAAAAAAAAAAAAAAAAAAAAAAAAAAAAAAAAAAAAAAAAAAAAAAAAAAAAAAAAAAAAAAAAAAAAAAAAAAAAAAAAAAAAAAAAAAAAAAAAAAAAAAAAAAAAAAAAAAAAAAAAAAAAAAAAAAAAAAAAAAAAAAAAAAAAAAAAAAAAAAAAAAAAAAAAAAAAAAAAAAAAAAAAAAAAAAAAAAAAAAAAAAAAAAAAAAAAAAAAAAAAAAAAAAAAAAAAAAAAAAAAAAAAAAAAAAAAAAAAAAAAAAAAAAAAAAAAAAAAAAAAAAAAAAAAAAAAAAAAAAAAAAAAAAAAAAAAAAAAAAAAAAAAAAAAAAAAAAAAAAAAAAAAAAAAAAAAAAAAAAAAAAAAAAAAAAAAAAAAAAAAAAAAAAAAAAAAAAAAAAAAAAAAAAAAAAAAAAAAAAAAAAAAAAAAAAAAAAAAAAAAAAAAAAAAAAAAAAAAAAAAAAAAAAAAAAAAAAAAAAAAAAAAAAAAAAAAAAAAAAAAAAAAAAAAAAAAAAAAAAAAAAAAAAAAAAAAAAAAAAAAAAAAAAAAAAAAAAAAAAAAAAAAAAAAAAAAAAAAAAAAAAAAAAAAAAAAAAAAAAAAAAAAAAAAAAAAAAAAAAAAAAAAAAAAAAAAAAAAAAAAAAAAAAAAAAAAAAAAAAAAAAAAAAAAAAAAAAAAAAAAAAAAAAAAAAAAAAAAAAAAAAAAAAAAAAAAAAAAAAAAAAAAAAAAAAAAAAAAAAAAAAAAAAAAAAAAAAAAAAAAAAAAAAAAAAAAAAAAAAAAAAAAAAAAAAAAAAAAAAAAAAAAAAAAAAAAAAAAAAAAAAAAAAAAAAAAAAAAAAAAAAAAAAAAAAAAAAAAAAAAAAAAAAAAAAAAAAAAAAAAAAAAAAAAAAAAAAAAAAAAAAAAAAAAAAAAAAAAAAAAAAAAAAAAAAAAAAAAAAAAAAAAAAAAAAAAAAAAAAAAAAAAAAAAAAAAAAAAAAAAAAAAAAAAAAAAAAAAAAAAAAAAAAAAAAAAAAAAAAAAAAAAAAAAAAAAAAAAAAAAAAAAAAAAAAAAAAAAAAAAAAAAAAAAAAAAAAAAAAAAAAAAAAAAAAAAAAAAAAAAAAAAAAAAAAAAAAAAAAAAAAAAAAAAAAAAAAAAAAAAAAAAAAAAAAAAAAAAAAAAAAAAAAAAAAAAAAAAAAAAAAAAAAAAAAAAAAAAAAAAAAAAAAAAAAAAAAAAAAAAAAAAAAAAAAAAAAAAAAAAAAAAAAAAAAAAAAAAAAAAAAAAAAAAAAAAAAAAAAAAAAAAAAAAAAAAAAAAAAAAAAAAAAAAAAAAAAAAAAAAAAAAAAAAAAAAAAAAAAAAAAAAAAAAAAAAAAAAAAAAAAAAAAAAAAAAAAAAAAAAAAAAAAAAAAAAAAAAAAAAAAAAAAAAAAAAAAAAAAAAAAAAAAAAAAAAAAAAAAAAAAAAAAAAAAAAAAAAAAAAAAAAAAAAAAAAAAAAAAAAAAAAAAAAAAAAAAAAAAAAAAAAAAAAAAAAAAAAAAAAAAAAAAAAAAAAAAAAAAAAAAAAAAAAAAAAAAAAAAAAAAAAAAAAAAAAAAAAAAAAAAAAAAAAAAAAAAAAAAAAAAAAAAAAAAAAAAAAAAAAAAAAAAAAAAAAAAAAAAAAAAAAAAAAAAAAAAAAAAAAAAAAAAAAAAAAAAAAAAAAAAAAAAAAAAAAAAAAAAAAAAAAAAAAAAAAAAAAAAAAAAAAAAAAAAAAAAAAAAAAAAAAAAAAAAAAAAAAAAAAAAAAAAAAAAAAAAAAAAAAAAAAAAAAAAAAAAAAAAAAAAAAAAAAAAAAAAAAAAAAAAAAAAAAAAAAAAAAAAAAAAAAAAAAAAAAAAAAAAAAAAAAAAAAAAAAAAAAAAAAAAAAAAAAAAAAAAAAAAAAAAAAAAAAAAAAAAAAAAAAAAAAAAAAAAAAAAAAAAAAAAAAAAAAAAAAAAAAAAAAAAAAAAAAAAAAAAAAAAAAAAAAAAAAAAAAAAAAAAAAAAAAAAAAAAAAAAAAAAAAAAAAAAAAAAAAAAAAAAAAAAAAAAAAAAAAAAAAAAAAAAAAAAAAAAAAAAAAAAAAAAAAAAAAAAAAAAAAAAAAAAAAAAAAAAAAAAAAAAAAAAAAAAAAAAAAAAAAAAAAAAAAAAAAAAAAAAAAAAAAAAAAAAAAAAAAAAAAAAAAAAAAAAAAAAAAAAAAAAAAAAAAAAAAAAAAAAAAAAAAAAAAAAAAAAAAAAAAAAAAAAAAAAAAAAAAAAAAAAAAAAAAAAAAAAAAAAAAAAAAAAAAAAAAAAAAAAAAAAAAAAAAAAAAAAAAAAAAAAAAAAAAAAAAAAAAAAAAAAAAAAAAAAAAAAAAAAAAAAAAAAAAAAAAAAAAAAAAAAAAAAAAAAAAAAAAAAAAAAAAAAAAAAAAAAAAAAAAAAAAAAAAAAAAAAAAAAAAAAAAAAAAAAAAAAAAAAAAAAAAAAAAAAAAAAAAAAAAAAAAAAAAAAAAAAAAAAAAAAAAAAAAAAAAAAAAAAAAAAAAAAAAAAAAAAAAAAAAAAAAAAAAAAAAAAAAAAAAAAAAAAAAAAAAAAAAAAAAAAAAAAAAAAAAAAAAAAAAAAAAAAAAAAAAAAAAAAAAAAAAAAAAAAAAAAAAAAAAAAAAAAAAAAAAAAAAAAAAAAAAAAAAAAAAAAAAAAAAAAAAAAAAAAAAAAAAAAAAAAAAAAAAAAAAAAAAAAAAAAAAAAAAAAAAAAAAAAAAAAAAAAAAAAAAAAAAAAAAAAAAAAAAAAAAAAAAAAAAAAAAAAAAAAAAAAAAAAAAAAAAAAAAAAAAAAAAAAAAAAAAAAAAAAAAAAAAAAAAAAAAAAAAAAAAAAAAAAAAAAAAAAAAAAAAAAAAAAAAAAAAAAAAAAAAAAAAAAAAAAAAAAAAAAAAAAAAAAAAAAAAAAAAAAAAAAAAAAAAAAAAAAAAAAAAAAAAAAAAAAAAAAAAAAAAAAAAAAAAAAAAAAAAAAAAAAAAAAAAAAAAAAAAAAAAAAAAAAAAAAAAAAAAAAAAAAAAAAAAAAAAAAAAAAAAAAAAAAAAAAAAAAAAAAAAAAAAAAAAAAAAAAAAAAAAAAAAAAAAAAAAAAAAAAAAAAAAAAAAAAAAAAAAAAAAAAAAAAAAAAAAAAAAAAAAAAAAAAAAAAAAAAAAAAAAAAAAAAAAAAAAAAAAAAAAAAAAAAAAAAAAAAAAAAAAAAAAAAAAAAAAAAAAAAAAAAAAAAAAAAAAAAAAAAAAAAAAAAAAAAAAAAAAAAAAAAAAAAAAAAAAAAAAAAAAAAAAAAAAAAAAAAAAAAAAAAAAAAAAAAAAAAAAAAAAAAAAAAAAAAAAAAAAAAAAAAAAAAAAAAAAAAAAAAAAAAAAAAAAAAAAAAAAAAAAAAAAAAAAAAAAAAAAAAAAAAAAAAAAAAAAAAAAAAAPZYQEVFaDwUi3KbKriaidum2SQWySv62hPq6M7+AppvyrltJSunb5HS3QQjKut3rUbakxP3HLzlPOvOWFPeRXdKoFQ=</c2pa:manifest></metadata><g transform="rotate(-14 90 100)"><path d="M35.5,100.0 C35.2,94.7 42.7,86.3 49.3,84.6 C56.0,83.0 70.9,85.9 75.5,90.1 C80.1,94.3 80.9,105.4 76.9,109.8 C72.8,114.2 57.8,118.1 50.9,116.5 C44.0,114.8 35.8,105.3 35.5,100.0 Z" fill="#C79A2E" transform="translate(3,3)"/><path d="M35.5,100.0 C35.2,94.7 42.7,86.3 49.3,84.6 C56.0,83.0 70.9,85.9 75.5,90.1 C80.1,94.3 80.9,105.4 76.9,109.8 C72.8,114.2 57.8,118.1 50.9,116.5 C44.0,114.8 35.8,105.3 35.5,100.0 Z" fill="none" stroke="#14130F" stroke-width="3.4" stroke-linecap="round" stroke-linejoin="round" /><path d="M144.1,100.3 C144.3,95.0 136.7,85.5 130.2,83.7 C123.7,82.0 109.2,85.3 105.0,89.8 C100.8,94.3 101.0,106.4 105.0,110.7 C109.0,115.0 122.5,117.3 129.1,115.5 C135.6,113.8 143.9,105.6 144.1,100.3 Z" fill="#C79A2E" transform="translate(3,3)"/><path d="M144.1,100.3 C144.3,95.0 136.7,85.5 130.2,83.7 C123.7,82.0 109.2,85.3 105.0,89.8 C100.8,94.3 101.0,106.4 105.0,110.7 C109.0,115.0 122.5,117.3 129.1,115.5 C135.6,113.8 143.9,105.6 144.1,100.3 Z" fill="none" stroke="#14130F" stroke-width="3.4" stroke-linecap="round" stroke-linejoin="round" /><path d="M134.0,100.4 C133.8,106.3 130.1,113.0 125.0,117.8 C119.9,122.5 111.3,127.0 103.4,128.9 C95.4,130.7 85.4,130.7 77.2,128.8 C68.9,127.0 59.1,122.7 53.9,117.9 C48.7,113.2 45.8,106.3 45.9,100.4 C46.0,94.6 49.1,87.6 54.4,82.9 C59.6,78.1 69.0,73.7 77.3,71.9 C85.6,70.0 96.1,70.2 104.2,71.9 C112.3,73.5 120.8,77.2 125.8,82.0 C130.7,86.7 134.1,94.4 134.0,100.4 Z" fill="#A83A28" transform="translate(4,4)"/><path d="M134.0,100.4 C133.8,106.3 130.1,113.0 125.0,117.8 C119.9,122.5 111.3,127.0 103.4,128.9 C95.4,130.7 85.4,130.7 77.2,128.8 C68.9,127.0 59.1,122.7 53.9,117.9 C48.7,113.2 45.8,106.3 45.9,100.4 C46.0,94.6 49.1,87.6 54.4,82.9 C59.6,78.1 69.0,73.7 77.3,71.9 C85.6,70.0 96.1,70.2 104.2,71.9 C112.3,73.5 120.8,77.2 125.8,82.0 C130.7,86.7 134.1,94.4 134.0,100.4 Z" fill="none" stroke="#14130F" stroke-width="3.6" stroke-linecap="round" stroke-linejoin="round" /><path d="M68.0,76.0 Q59.3,99.5 54.0,124.0" fill="none" stroke="#FFFDF7" stroke-width="6" stroke-linecap="round"/><path d="M88.0,76.0 Q80.4,99.8 74.0,124.0" fill="none" stroke="#FFFDF7" stroke-width="6" stroke-linecap="round"/><path d="M108.0,76.0 Q100.8,100.0 94.0,124.0" fill="none" stroke="#FFFDF7" stroke-width="6" stroke-linecap="round"/><path d="M134.0,100.4 C134.2,106.3 131.3,113.4 126.3,118.0 C121.4,122.6 112.5,126.3 104.2,128.0 C95.8,129.6 84.5,129.7 76.3,128.0 C68.0,126.3 59.6,122.3 54.6,117.7 C49.5,113.1 46.2,106.3 46.1,100.4 C46.0,94.6 48.8,87.5 53.9,82.6 C59.0,77.8 68.1,73.1 76.6,71.1 C85.0,69.2 96.3,69.1 104.4,70.9 C112.6,72.8 120.6,77.5 125.5,82.4 C130.5,87.3 133.9,94.4 134.0,100.4 Z" fill="none" stroke="#14130F" stroke-width="3.6" stroke-linecap="round" stroke-linejoin="round" /></g><path d="M160,76 L152,168" fill="none" stroke="#14130F" stroke-width="5" stroke-linecap="round" stroke-linejoin="round" /><path d="M191.9,54.8 C192.9,60.6 191.8,68.0 189.2,73.3 C186.6,78.7 181.5,84.1 176.2,86.9 C171.0,89.6 163.5,90.7 157.8,89.7 C152.0,88.7 146.0,85.0 141.7,80.9 C137.4,76.9 133.0,70.9 132.0,65.3 C130.9,59.6 132.8,52.4 135.4,47.0 C138.0,41.6 142.6,36.0 147.7,33.0 C152.9,30.1 160.4,28.6 166.3,29.4 C172.2,30.3 178.9,33.9 183.2,38.1 C187.5,42.3 190.9,48.9 191.9,54.8 Z" fill="#F0A6B8" transform="translate(4,3)"/><path d="M191.9,54.8 C192.9,60.6 191.8,68.0 189.2,73.3 C186.6,78.7 181.5,84.1 176.2,86.9 C171.0,89.6 163.5,90.7 157.8,89.7 C152.0,88.7 146.0,85.0 141.7,80.9 C137.4,76.9 133.0,70.9 132.0,65.3 C130.9,59.6 132.8,52.4 135.4,47.0 C138.0,41.6 142.6,36.0 147.7,33.0 C152.9,30.1 160.4,28.6 166.3,29.4 C172.2,30.3 178.9,33.9 183.2,38.1 C187.5,42.3 190.9,48.9 191.9,54.8 Z" fill="none" stroke="#14130F" stroke-width="3.6" stroke-linecap="round" stroke-linejoin="round" /><path d="M162,60 q10,-6 10,4 q0,10 -14,8 q-16,-4 -12,-22" fill="none" stroke="#14130F" stroke-width="3" stroke-linecap="round" stroke-linejoin="round" /></svg>