<svg xmlns="http://www.w3.org/2000/svg" width="500" height="470" viewBox="0 0 500 470"><path d="M20,40 Q250,88 480,40" fill="none" stroke="#14130F" stroke-width="3" stroke-linecap="round" stroke-linejoin="round" /><path d="M27.5,42.6 C30.0,37.3 55.6,36.9 58.2,42.2 C60.9,47.4 48.5,74.0 43.4,74.1 C38.3,74.2 25.1,47.9 27.5,42.6 Z" fill="#A83A28" transform="translate(2,2)"/><path d="M27.5,42.6 C30.0,37.3 55.6,36.9 58.2,42.2 C60.9,47.4 48.5,74.0 43.4,74.1 C38.3,74.2 25.1,47.9 27.5,42.6 Z" fill="none" stroke="#14130F" stroke-width="2.8" stroke-linecap="round" stroke-linejoin="round" /><path d="M73.7,50.0 C76.3,44.8 101.9,45.3 104.5,50.7 C107.0,56.0 94.2,82.4 89.1,82.3 C83.9,82.2 71.2,55.3 73.7,50.0 Z" fill="#C79A2E" transform="translate(2,2)"/><path d="M73.7,50.0 C76.3,44.8 101.9,45.3 104.5,50.7 C107.0,56.0 94.2,82.4 89.1,82.3 C83.9,82.2 71.2,55.3 73.7,50.0 Z" fill="none" stroke="#14130F" stroke-width="2.8" stroke-linecap="round" stroke-linejoin="round" /><path d="M120.2,56.3 C122.7,51.1 147.8,51.1 150.3,56.3 C152.8,61.5 140.3,87.5 135.2,87.5 C130.2,87.5 117.7,61.5 120.2,56.3 Z" fill="#4A4844" transform="translate(2,2)"/><path d="M120.2,56.3 C122.7,51.1 147.8,51.1 150.3,56.3 C152.8,61.5 140.3,87.5 135.2,87.5 C130.2,87.5 117.7,61.5 120.2,56.3 Z" fill="none" stroke="#14130F" stroke-width="2.8" stroke-linecap="round" stroke-linejoin="round" /><path d="M166.0,59.7 C168.5,54.5 193.2,54.9 195.7,60.2 C198.2,65.5 185.8,91.6 180.9,91.5 C175.9,91.4 163.6,64.9 166.0,59.7 Z" fill="#5C6B4E" transform="translate(2,2)"/><path d="M166.0,59.7 C168.5,54.5 193.2,54.9 195.7,60.2 C198.2,65.5 185.8,91.6 180.9,91.5 C175.9,91.4 163.6,64.9 166.0,59.7 Z" fill="none" stroke="#14130F" stroke-width="2.8" stroke-linecap="round" stroke-linejoin="round" /><path d="M212.1,61.3 C214.5,56.0 239.5,56.5 242.0,61.9 C244.6,67.4 232.4,94.0 227.4,93.9 C222.5,93.8 209.7,66.6 212.1,61.3 Z" fill="#A83A28" transform="translate(2,2)"/><path d="M212.1,61.3 C214.5,56.0 239.5,56.5 242.0,61.9 C244.6,67.4 232.4,94.0 227.4,93.9 C222.5,93.8 209.7,66.6 212.1,61.3 Z" fill="none" stroke="#14130F" stroke-width="2.8" stroke-linecap="round" stroke-linejoin="round" /><path d="M257.6,62.1 C260.0,56.8 285.1,56.1 287.7,61.3 C290.3,66.6 278.2,93.4 273.2,93.5 C268.1,93.6 255.1,67.5 257.6,62.1 Z" fill="#C79A2E" transform="translate(2,2)"/><path d="M257.6,62.1 C260.0,56.8 285.1,56.1 287.7,61.3 C290.3,66.6 278.2,93.4 273.2,93.5 C268.1,93.6 255.1,67.5 257.6,62.1 Z" fill="none" stroke="#14130F" stroke-width="2.8" stroke-linecap="round" stroke-linejoin="round" /><path d="M303.7,59.4 C306.1,54.0 331.2,54.2 333.8,59.6 C336.4,65.1 324.2,92.3 319.2,92.3 C314.2,92.2 301.2,64.8 303.7,59.4 Z" fill="#4A4844" transform="translate(2,2)"/><path d="M303.7,59.4 C306.1,54.0 331.2,54.2 333.8,59.6 C336.4,65.1 324.2,92.3 319.2,92.3 C314.2,92.2 301.2,64.8 303.7,59.4 Z" fill="none" stroke="#14130F" stroke-width="2.8" stroke-linecap="round" stroke-linejoin="round" /><path d="M350.3,56.2 C352.7,51.0 377.2,50.6 379.6,55.8 C382.1,61.0 369.9,87.4 365.0,87.5 C360.1,87.6 347.9,61.5 350.3,56.2 Z" fill="#5C6B4E" transform="translate(2,2)"/><path d="M350.3,56.2 C352.7,51.0 377.2,50.6 379.6,55.8 C382.1,61.0 369.9,87.4 365.0,87.5 C360.1,87.6 347.9,61.5 350.3,56.2 Z" fill="none" stroke="#14130F" stroke-width="2.8" stroke-linecap="round" stroke-linejoin="round" /><path d="M395.6,50.3 C398.1,45.0 423.6,45.3 426.2,50.7 C428.7,56.0 416.2,82.4 411.1,82.3 C406.0,82.3 393.1,55.6 395.6,50.3 Z" fill="#A83A28" transform="translate(2,2)"/><path d="M395.6,50.3 C398.1,45.0 423.6,45.3 426.2,50.7 C428.7,56.0 416.2,82.4 411.1,82.3 C406.0,82.3 393.1,55.6 395.6,50.3 Z" fill="none" stroke="#14130F" stroke-width="2.8" stroke-linecap="round" stroke-linejoin="round" /><path d="M441.5,42.2 C444.0,36.9 469.7,37.5 472.3,42.8 C475.0,48.2 462.4,74.4 457.3,74.3 C452.1,74.2 439.0,47.4 441.5,42.2 Z" fill="#C79A2E" transform="translate(2,2)"/><path d="M441.5,42.2 C444.0,36.9 469.7,37.5 472.3,42.8 C475.0,48.2 462.4,74.4 457.3,74.3 C452.1,74.2 439.0,47.4 441.5,42.2 Z" fill="none" stroke="#14130F" stroke-width="2.8" stroke-linecap="round" stroke-linejoin="round" /><path d="M64,116 L64,320" fill="none" stroke="#14130F" stroke-width="5.4" stroke-linecap="round" stroke-linejoin="round" /><path d="M440,116 L440,320" fill="none" stroke="#14130F" stroke-width="5.4" stroke-linecap="round" stroke-linejoin="round" /><path d="M44.0,96 L93.5,96 L97.5,150 A26.8,16 0 0 1 46.0,150 Z" fill="#C79A2E" stroke="#14130F" stroke-width="3" stroke-linejoin="round"/><path d="M93.5,96 L143.0,96 L147.0,150 A26.8,16 0 0 1 95.5,150 Z" fill="#4A4844" stroke="#14130F" stroke-width="3" stroke-linejoin="round"/><path d="M143.0,96 L192.5,96 L196.5,150 A26.8,16 0 0 1 145.0,150 Z" fill="#C79A2E" stroke="#14130F" stroke-width="3" stroke-linejoin="round"/><path d="M192.5,96 L242.0,96 L246.0,150 A26.8,16 0 0 1 194.5,150 Z" fill="#4A4844" stroke="#14130F" stroke-width="3" stroke-linejoin="round"/><path d="M242.0,96 L291.5,96 L295.5,150 A26.8,16 0 0 1 244.0,150 Z" fill="#C79A2E" stroke="#14130F" stroke-width="3" stroke-linejoin="round"/><path d="M291.5,96 L341.0,96 L345.0,150 A26.8,16 0 0 1 293.5,150 Z" fill="#4A4844" stroke="#14130F" stroke-width="3" stroke-linejoin="round"/><path d="M341.0,96 L390.5,96 L394.5,150 A26.8,16 0 0 1 343.0,150 Z" fill="#C79A2E" stroke="#14130F" stroke-width="3" stroke-linejoin="round"/><path d="M390.5,96 L440.0,96 L444.0,150 A26.8,16 0 0 1 392.5,150 Z" fill="#4A4844" stroke="#14130F" stroke-width="3" stroke-linejoin="round"/><path d="M44,96 L440,96" fill="none" stroke="#14130F" stroke-width="3.4" stroke-linecap="round" stroke-linejoin="round" /><g transform="translate(168,432) scale(0.8)"><path d="M-25.3,-152.1 C-23.2,-153.8 -23.7,-153.3 -21.9,-153.1 C-20.2,-152.9 -17.2,-152.4 -14.8,-150.9 C-12.4,-149.3 -8.5,-156.2 -7.5,-143.9 C-6.5,-131.5 -9.0,-99.5 -9.0,-76.9 C-9.0,-54.3 -6.5,-21.4 -7.5,-8.4 C-8.6,4.6 -12.9,-0.1 -15.3,1.1 C-17.7,2.3 -20.0,-1.1 -21.9,-1.1 C-23.8,-1.1 -24.7,2.1 -26.6,1.1 C-28.5,0.1 -31.9,5.6 -33.3,-7.4 C-34.7,-20.3 -34.7,-53.7 -35.0,-76.4 C-35.2,-99.0 -36.2,-130.6 -34.6,-143.3 C-33.0,-155.9 -27.4,-150.5 -25.3,-152.1 Z" fill="#1C1B18" transform="translate(3,2)"/><path d="M-25.3,-152.1 C-23.2,-153.8 -23.7,-153.3 -21.9,-153.1 C-20.2,-152.9 -17.2,-152.4 -14.8,-150.9 C-12.4,-149.3 -8.5,-156.2 -7.5,-143.9 C-6.5,-131.5 -9.0,-99.5 -9.0,-76.9 C-9.0,-54.3 -6.5,-21.4 -7.5,-8.4 C-8.6,4.6 -12.9,-0.1 -15.3,1.1 C-17.7,2.3 -20.0,-1.1 -21.9,-1.1 C-23.8,-1.1 -24.7,2.1 -26.6,1.1 C-28.5,0.1 -31.9,5.6 -33.3,-7.4 C-34.7,-20.3 -34.7,-53.7 -35.0,-76.4 C-35.2,-99.0 -36.2,-130.6 -34.6,-143.3 C-33.0,-155.9 -27.4,-150.5 -25.3,-152.1 Z" fill="none" stroke="#14130F" stroke-width="3.6" stroke-linecap="round" stroke-linejoin="round" /><path d="M16.6,-152.4 C18.8,-154.1 20.2,-153.2 21.9,-153.1 C23.5,-152.9 24.2,-152.9 26.3,-151.5 C28.4,-150.1 33.5,-157.3 34.6,-144.9 C35.7,-132.5 33.0,-99.8 32.9,-77.1 C32.8,-54.5 35.1,-21.9 33.9,-9.0 C32.6,3.9 27.4,-1.3 25.4,0.1 C23.3,1.5 23.3,-0.8 21.5,-0.8 C19.8,-0.8 17.1,1.3 15.0,0.0 C12.9,-1.2 10.1,4.3 8.9,-8.2 C7.6,-20.7 7.5,-52.4 7.3,-74.8 C7.2,-97.3 6.6,-130.1 8.1,-143.0 C9.7,-156.0 14.3,-150.7 16.6,-152.4 Z" fill="#1C1B18" transform="translate(3,2)"/><path d="M16.6,-152.4 C18.8,-154.1 20.2,-153.2 21.9,-153.1 C23.5,-152.9 24.2,-152.9 26.3,-151.5 C28.4,-150.1 33.5,-157.3 34.6,-144.9 C35.7,-132.5 33.0,-99.8 32.9,-77.1 C32.8,-54.5 35.1,-21.9 33.9,-9.0 C32.6,3.9 27.4,-1.3 25.4,0.1 C23.3,1.5 23.3,-0.8 21.5,-0.8 C19.8,-0.8 17.1,1.3 15.0,0.0 C12.9,-1.2 10.1,4.3 8.9,-8.2 C7.6,-20.7 7.5,-52.4 7.3,-74.8 C7.2,-97.3 6.6,-130.1 8.1,-143.0 C9.7,-156.0 14.3,-150.7 16.6,-152.4 Z" fill="none" stroke="#14130F" stroke-width="3.6" stroke-linecap="round" stroke-linejoin="round" /><path d="M-46.3,-3.8 C-53.2,-6.3 -46.8,-14.6 -43.1,-17.3 C-39.4,-20.0 -30.8,-20.8 -23.9,-20.1 C-17.0,-19.4 -5.5,-16.2 -1.8,-13.2 C1.9,-10.1 5.8,-3.5 -1.7,-2.0 C-9.1,-0.4 -39.4,-1.2 -46.3,-3.8 Z" fill="#EDE7D8" transform="translate(3,2)"/><path d="M-46.3,-3.8 C-53.2,-6.3 -46.8,-14.6 -43.1,-17.3 C-39.4,-20.0 -30.8,-20.8 -23.9,-20.1 C-17.0,-19.4 -5.5,-16.2 -1.8,-13.2 C1.9,-10.1 5.8,-3.5 -1.7,-2.0 C-9.1,-0.4 -39.4,-1.2 -46.3,-3.8 Z" fill="none" stroke="#14130F" stroke-width="3.6" stroke-linecap="round" stroke-linejoin="round" /><path d="M2.8,-1.5 C-4.7,-2.9 -2.2,-10.4 1.5,-13.4 C5.2,-16.5 17.8,-19.1 24.9,-19.8 C32.0,-20.6 40.5,-20.4 44.1,-17.9 C47.6,-15.4 53.2,-7.6 46.3,-4.8 C39.5,-2.1 10.2,-0.1 2.8,-1.5 Z" fill="#EDE7D8" transform="translate(3,2)"/><path d="M2.8,-1.5 C-4.7,-2.9 -2.2,-10.4 1.5,-13.4 C5.2,-16.5 17.8,-19.1 24.9,-19.8 C32.0,-20.6 40.5,-20.4 44.1,-17.9 C47.6,-15.4 53.2,-7.6 46.3,-4.8 C39.5,-2.1 10.2,-0.1 2.8,-1.5 Z" fill="none" stroke="#14130F" stroke-width="3.6" stroke-linecap="round" stroke-linejoin="round" /><path d="M-46,-4 l44,0" fill="none" stroke="#14130F" stroke-width="3.2" stroke-linecap="round" stroke-linejoin="round" /><path d="M2,-4 l44,0" fill="none" stroke="#14130F" stroke-width="3.2" stroke-linecap="round" stroke-linejoin="round" /><path d="M-3.0,-292.8 C-1.5,-293.9 -1.5,-293.3 -0.5,-293.1 C0.5,-292.8 1.3,-292.4 3.0,-291.4 C4.7,-290.3 8.5,-288.5 9.7,-286.9 C10.8,-285.2 9.8,-283.5 9.8,-281.4 C9.8,-279.4 10.9,-276.3 9.8,-274.4 C8.7,-272.6 4.7,-271.0 3.1,-270.3 C1.5,-269.7 1.5,-270.5 0.1,-270.5 C-1.2,-270.4 -3.3,-269.4 -4.9,-270.1 C-6.5,-270.8 -8.6,-273.0 -9.2,-274.8 C-9.8,-276.7 -8.5,-279.5 -8.6,-281.4 C-8.6,-283.3 -10.4,-284.4 -9.5,-286.3 C-8.5,-288.2 -4.5,-291.6 -3.0,-292.8 Z" fill="#8A5A3C" stroke="#14130F" stroke-width="3.6" stroke-linecap="round" stroke-linejoin="round" /><path d="M-41.6,-139.6 C-49.4,-151.0 -47.7,-182.7 -47.1,-201.4 C-46.5,-220.1 -43.2,-239.9 -38.1,-251.8 C-33.0,-263.7 -25.5,-269.6 -16.6,-272.8 C-7.8,-276.0 6.1,-274.2 15.2,-270.8 C24.2,-267.4 32.8,-264.1 37.8,-252.4 C42.8,-240.6 44.9,-219.1 45.4,-200.5 C45.9,-181.9 48.5,-152.0 40.9,-140.8 C33.2,-129.6 13.2,-133.5 -0.5,-133.3 C-14.3,-133.1 -33.8,-128.3 -41.6,-139.6 Z" fill="#A83A28" transform="translate(5,4)"/><path d="M-41.6,-139.6 C-49.4,-151.0 -47.7,-182.7 -47.1,-201.4 C-46.5,-220.1 -43.2,-239.9 -38.1,-251.8 C-33.0,-263.7 -25.5,-269.6 -16.6,-272.8 C-7.8,-276.0 6.1,-274.2 15.2,-270.8 C24.2,-267.4 32.8,-264.1 37.8,-252.4 C42.8,-240.6 44.9,-219.1 45.4,-200.5 C45.9,-181.9 48.5,-152.0 40.9,-140.8 C33.2,-129.6 13.2,-133.5 -0.5,-133.3 C-14.3,-133.1 -33.8,-128.3 -41.6,-139.6 Z" fill="none" stroke="#14130F" stroke-width="3.6" stroke-linecap="round" stroke-linejoin="round" /><path d="M-24,-262 Q0,-244 24,-262" fill="none" stroke="#14130F" stroke-width="3" stroke-linecap="round" stroke-linejoin="round" /><path d="M-6,-250 L-7,-220" fill="none" stroke="#14130F" stroke-width="2.6" stroke-linecap="round" stroke-linejoin="round" /><path d="M6,-250 L7,-220" fill="none" stroke="#14130F" stroke-width="2.6" stroke-linecap="round" stroke-linejoin="round" /><path d="M-30,-168 Q0,-158 30,-168" fill="none" stroke="#14130F" stroke-width="2.6" stroke-linecap="round" stroke-linejoin="round" /><path d="M-38.0,-246.0 Q-42.5,-190.8 -30.0,-156.0" fill="none" stroke="#14130F" stroke-width="24" stroke-linecap="round" stroke-linejoin="round"/><path d="M-38.0,-246.0 Q-42.5,-190.8 -30.0,-156.0" fill="none" stroke="#A83A28" stroke-width="17" stroke-linecap="round" stroke-linejoin="round"/><path d="M-19.1,-156.4 C-18.9,-154.2 -19.4,-151.4 -20.6,-149.6 C-21.8,-147.9 -24.2,-146.5 -26.3,-145.7 C-28.4,-145.0 -31.1,-144.5 -33.1,-145.2 C-35.2,-145.8 -37.2,-147.6 -38.5,-149.4 C-39.8,-151.1 -40.7,-153.5 -40.8,-155.7 C-40.8,-157.8 -40.1,-160.3 -39.0,-162.1 C-37.8,-163.9 -35.8,-165.8 -33.8,-166.5 C-31.8,-167.2 -29.1,-166.9 -27.0,-166.3 C-25.0,-165.6 -22.8,-164.3 -21.5,-162.6 C-20.2,-161.0 -19.2,-158.5 -19.1,-156.4 Z" fill="#8A5A3C" stroke="#14130F" stroke-width="3.6" stroke-linecap="round" stroke-linejoin="round" /><path d="M38.0,-246.0 Q34.0,-196.4 20.0,-160.0" fill="none" stroke="#14130F" stroke-width="24" stroke-linecap="round" stroke-linejoin="round"/><path d="M38.0,-246.0 Q34.0,-196.4 20.0,-160.0" fill="none" stroke="#A83A28" stroke-width="17" stroke-linecap="round" stroke-linejoin="round"/><path d="M30.9,-162.9 C31.4,-160.8 30.8,-158.1 30.0,-156.1 C29.1,-154.1 27.7,-152.1 25.9,-150.8 C24.1,-149.6 21.5,-148.6 19.4,-148.7 C17.2,-148.8 14.7,-150.0 13.0,-151.4 C11.3,-152.8 9.7,-155.0 9.1,-157.1 C8.5,-159.2 8.6,-162.1 9.5,-164.1 C10.3,-166.1 12.2,-168.1 14.1,-169.2 C15.9,-170.3 18.5,-170.9 20.6,-170.7 C22.7,-170.6 25.1,-169.6 26.8,-168.3 C28.5,-167.0 30.3,-164.9 30.9,-162.9 Z" fill="#8A5A3C" stroke="#14130F" stroke-width="3.6" stroke-linecap="round" stroke-linejoin="round" /><path d="M-22.3,-302.1 C-22.7,-300.9 -23.5,-299.7 -24.5,-299.0 C-25.5,-298.4 -26.9,-298.0 -28.1,-298.1 C-29.3,-298.1 -30.6,-298.6 -31.5,-299.3 C-32.5,-300.0 -33.4,-301.1 -33.8,-302.2 C-34.1,-303.3 -34.0,-304.8 -33.6,-305.9 C-33.2,-307.0 -32.4,-308.3 -31.5,-309.0 C-30.5,-309.7 -29.1,-310.1 -27.9,-310.1 C-26.7,-310.1 -25.4,-309.5 -24.4,-308.8 C-23.5,-308.0 -22.7,-306.9 -22.4,-305.7 C-22.0,-304.6 -21.9,-303.2 -22.3,-302.1 Z" fill="#8A5A3C" stroke="#14130F" stroke-width="3.6" stroke-linecap="round" stroke-linejoin="round" /><path d="M34.1,-304.7 C34.2,-303.5 33.7,-302.1 33.1,-301.1 C32.5,-300.1 31.5,-299.1 30.5,-298.6 C29.4,-298.1 28.0,-298.0 26.8,-298.2 C25.7,-298.4 24.3,-299.0 23.5,-299.9 C22.7,-300.7 22.1,-302.1 22.0,-303.3 C21.9,-304.5 22.3,-305.8 22.9,-306.9 C23.5,-307.9 24.4,-309.0 25.5,-309.5 C26.5,-310.1 28.1,-310.3 29.2,-310.0 C30.4,-309.8 31.6,-309.0 32.5,-308.1 C33.3,-307.2 34.0,-305.9 34.1,-304.7 Z" fill="#8A5A3C" stroke="#14130F" stroke-width="3.6" stroke-linecap="round" stroke-linejoin="round" /><path d="M30.2,-302.9 C29.6,-298.0 26.9,-292.3 23.5,-288.5 C20.2,-284.8 15.0,-282.1 10.3,-280.4 C5.5,-278.7 -0.1,-277.6 -5.0,-278.3 C-9.9,-279.0 -15.6,-281.3 -19.4,-284.6 C-23.1,-287.8 -25.7,-293.1 -27.4,-297.8 C-29.1,-302.5 -30.6,-308.2 -29.8,-313.0 C-29.1,-317.9 -26.1,-323.0 -22.9,-326.9 C-19.7,-330.9 -15.4,-334.9 -10.7,-336.8 C-6.1,-338.7 0.1,-339.2 5.1,-338.3 C10.1,-337.3 15.4,-334.5 19.1,-331.1 C22.8,-327.8 25.4,-322.8 27.2,-318.1 C29.1,-313.4 30.9,-307.8 30.2,-302.9 Z" fill="#8A5A3C" transform="translate(2,2)"/><path d="M30.2,-302.9 C29.6,-298.0 26.9,-292.3 23.5,-288.5 C20.2,-284.8 15.0,-282.1 10.3,-280.4 C5.5,-278.7 -0.1,-277.6 -5.0,-278.3 C-9.9,-279.0 -15.6,-281.3 -19.4,-284.6 C-23.1,-287.8 -25.7,-293.1 -27.4,-297.8 C-29.1,-302.5 -30.6,-308.2 -29.8,-313.0 C-29.1,-317.9 -26.1,-323.0 -22.9,-326.9 C-19.7,-330.9 -15.4,-334.9 -10.7,-336.8 C-6.1,-338.7 0.1,-339.2 5.1,-338.3 C10.1,-337.3 15.4,-334.5 19.1,-331.1 C22.8,-327.8 25.4,-322.8 27.2,-318.1 C29.1,-313.4 30.9,-307.8 30.2,-302.9 Z" fill="none" stroke="#14130F" stroke-width="3.6" stroke-linecap="round" stroke-linejoin="round" /><rect x="-13" y="-309" width="7" height="2.6" rx="1.2" fill="#14130F" transform="rotate(-4 -10 -308)"/><rect x="6" y="-309" width="7" height="2.6" rx="1.2" fill="#14130F" transform="rotate(4 10 -308)"/><path d="M-7,-297 L7,-296" fill="none" stroke="#14130F" stroke-width="2.2" stroke-linecap="round" stroke-linejoin="round" /><path d="M-32.6,-311.4 C-35.5,-313.2 -32.7,-329.4 -27.3,-334.4 C-21.8,-339.4 -9.1,-341.3 0.2,-341.4 C9.5,-341.4 23.4,-339.7 28.8,-334.7 C34.1,-329.7 35.5,-313.2 32.4,-311.6 C29.3,-309.9 17.1,-322.6 10.2,-324.6 C3.2,-326.6 -2.4,-326.0 -9.5,-323.8 C-16.6,-321.6 -29.6,-309.7 -32.6,-311.4 Z" fill="#1C1B18" stroke="#14130F" stroke-width="2.6" stroke-linecap="round" stroke-linejoin="round" /></g><g transform="translate(338,432) scale(-0.8,0.8)"><path d="M-26.5,-151.8 C-24.3,-153.1 -23.9,-153.2 -22.0,-153.1 C-20.1,-153.0 -17.3,-152.6 -15.1,-151.3 C-12.9,-149.9 -10.0,-157.6 -8.8,-145.0 C-7.5,-132.5 -7.7,-99.0 -7.5,-76.1 C-7.3,-53.2 -6.0,-20.5 -7.5,-7.7 C-9.0,5.0 -14.5,-1.0 -16.7,0.2 C-19.0,1.5 -19.2,-0.4 -20.9,-0.4 C-22.6,-0.3 -24.7,1.9 -26.8,0.5 C-28.9,-0.9 -32.3,3.7 -33.6,-9.0 C-34.9,-21.6 -34.5,-52.8 -34.8,-75.5 C-35.1,-98.2 -36.6,-132.3 -35.2,-145.0 C-33.8,-157.7 -28.7,-150.4 -26.5,-151.8 Z" fill="#1C1B18" transform="translate(3,2)"/><path d="M-26.5,-151.8 C-24.3,-153.1 -23.9,-153.2 -22.0,-153.1 C-20.1,-153.0 -17.3,-152.6 -15.1,-151.3 C-12.9,-149.9 -10.0,-157.6 -8.8,-145.0 C-7.5,-132.5 -7.7,-99.0 -7.5,-76.1 C-7.3,-53.2 -6.0,-20.5 -7.5,-7.7 C-9.0,5.0 -14.5,-1.0 -16.7,0.2 C-19.0,1.5 -19.2,-0.4 -20.9,-0.4 C-22.6,-0.3 -24.7,1.9 -26.8,0.5 C-28.9,-0.9 -32.3,3.7 -33.6,-9.0 C-34.9,-21.6 -34.5,-52.8 -34.8,-75.5 C-35.1,-98.2 -36.6,-132.3 -35.2,-145.0 C-33.8,-157.7 -28.7,-150.4 -26.5,-151.8 Z" fill="none" stroke="#14130F" stroke-width="3.6" stroke-linecap="round" stroke-linejoin="round" /><path d="M16.8,-151.6 C18.9,-153.3 20.4,-152.8 21.9,-152.9 C23.4,-153.1 23.8,-154.1 25.8,-152.7 C27.7,-151.4 32.2,-157.5 33.6,-144.6 C35.0,-131.8 34.2,-98.5 34.3,-75.6 C34.4,-52.6 35.5,-19.4 34.2,-7.0 C33.0,5.4 28.8,-1.9 26.8,-0.9 C24.8,0.1 23.9,-1.3 22.2,-1.0 C20.5,-0.7 19.2,2.1 16.7,0.8 C14.3,-0.5 8.8,4.3 7.3,-8.7 C5.8,-21.7 7.4,-54.8 7.8,-77.2 C8.1,-99.5 7.7,-130.5 9.2,-142.9 C10.7,-155.3 14.7,-150.0 16.8,-151.6 Z" fill="#1C1B18" transform="translate(3,2)"/><path d="M16.8,-151.6 C18.9,-153.3 20.4,-152.8 21.9,-152.9 C23.4,-153.1 23.8,-154.1 25.8,-152.7 C27.7,-151.4 32.2,-157.5 33.6,-144.6 C35.0,-131.8 34.2,-98.5 34.3,-75.6 C34.4,-52.6 35.5,-19.4 34.2,-7.0 C33.0,5.4 28.8,-1.9 26.8,-0.9 C24.8,0.1 23.9,-1.3 22.2,-1.0 C20.5,-0.7 19.2,2.1 16.7,0.8 C14.3,-0.5 8.8,4.3 7.3,-8.7 C5.8,-21.7 7.4,-54.8 7.8,-77.2 C8.1,-99.5 7.7,-130.5 9.2,-142.9 C10.7,-155.3 14.7,-150.0 16.8,-151.6 Z" fill="none" stroke="#14130F" stroke-width="3.6" stroke-linecap="round" stroke-linejoin="round" /><path d="M-45.1,-4.2 C-52.0,-6.9 -46.6,-15.6 -43.2,-18.2 C-39.8,-20.8 -31.6,-20.4 -24.8,-19.7 C-18.0,-18.9 -6.3,-16.9 -2.5,-14.0 C1.3,-11.1 5.3,-3.8 -1.8,-2.2 C-8.9,-0.6 -38.2,-1.5 -45.1,-4.2 Z" fill="#C79A2E" transform="translate(3,2)"/><path d="M-45.1,-4.2 C-52.0,-6.9 -46.6,-15.6 -43.2,-18.2 C-39.8,-20.8 -31.6,-20.4 -24.8,-19.7 C-18.0,-18.9 -6.3,-16.9 -2.5,-14.0 C1.3,-11.1 5.3,-3.8 -1.8,-2.2 C-8.9,-0.6 -38.2,-1.5 -45.1,-4.2 Z" fill="none" stroke="#14130F" stroke-width="3.6" stroke-linecap="round" stroke-linejoin="round" /><path d="M1.8,-1.6 C-5.4,-3.3 -1.3,-11.8 2.5,-14.9 C6.3,-17.9 17.6,-19.6 24.5,-20.1 C31.4,-20.5 40.5,-19.9 44.0,-17.4 C47.5,-14.8 52.5,-7.2 45.5,-4.6 C38.4,-2.0 8.9,0.1 1.8,-1.6 Z" fill="#C79A2E" transform="translate(3,2)"/><path d="M1.8,-1.6 C-5.4,-3.3 -1.3,-11.8 2.5,-14.9 C6.3,-17.9 17.6,-19.6 24.5,-20.1 C31.4,-20.5 40.5,-19.9 44.0,-17.4 C47.5,-14.8 52.5,-7.2 45.5,-4.6 C38.4,-2.0 8.9,0.1 1.8,-1.6 Z" fill="none" stroke="#14130F" stroke-width="3.6" stroke-linecap="round" stroke-linejoin="round" /><path d="M-46,-4 l44,0" fill="none" stroke="#14130F" stroke-width="3.2" stroke-linecap="round" stroke-linejoin="round" /><path d="M2,-4 l44,0" fill="none" stroke="#14130F" stroke-width="3.2" stroke-linecap="round" stroke-linejoin="round" /><path d="M-4.4,-292.7 C-2.8,-293.5 -1.0,-291.6 0.4,-291.7 C1.8,-291.8 2.8,-294.0 4.1,-293.1 C5.5,-292.3 7.4,-288.6 8.4,-286.7 C9.4,-284.7 10.0,-283.3 10.2,-281.5 C10.4,-279.7 10.7,-277.8 9.8,-276.0 C8.9,-274.2 6.3,-271.9 4.8,-270.9 C3.3,-269.9 2.2,-270.4 0.6,-270.1 C-1.0,-269.8 -3.2,-268.4 -4.9,-269.1 C-6.6,-269.9 -9.0,-272.8 -9.5,-274.6 C-10.0,-276.4 -8.1,-278.2 -8.1,-280.2 C-8.0,-282.3 -9.7,-284.8 -9.1,-286.9 C-8.5,-289.0 -6.0,-291.9 -4.4,-292.7 Z" fill="#E9BC94" stroke="#14130F" stroke-width="3.6" stroke-linecap="round" stroke-linejoin="round" /><path d="M-40.6,-140.2 C-48.3,-151.0 -45.5,-181.2 -45.2,-200.0 C-44.9,-218.7 -43.5,-240.7 -38.6,-252.8 C-33.8,-264.8 -25.1,-268.7 -16.0,-272.0 C-6.9,-275.4 6.9,-275.9 15.9,-272.8 C24.8,-269.6 33.0,-265.2 37.9,-253.0 C42.9,-240.8 44.7,-218.7 45.5,-199.6 C46.4,-180.6 50.8,-149.5 43.3,-138.7 C35.8,-128.0 14.6,-135.1 0.6,-135.3 C-13.4,-135.6 -33.0,-129.5 -40.6,-140.2 Z" fill="#5C6B4E" transform="translate(5,4)"/><path d="M-40.6,-140.2 C-48.3,-151.0 -45.5,-181.2 -45.2,-200.0 C-44.9,-218.7 -43.5,-240.7 -38.6,-252.8 C-33.8,-264.8 -25.1,-268.7 -16.0,-272.0 C-6.9,-275.4 6.9,-275.9 15.9,-272.8 C24.8,-269.6 33.0,-265.2 37.9,-253.0 C42.9,-240.8 44.7,-218.7 45.5,-199.6 C46.4,-180.6 50.8,-149.5 43.3,-138.7 C35.8,-128.0 14.6,-135.1 0.6,-135.3 C-13.4,-135.6 -33.0,-129.5 -40.6,-140.2 Z" fill="none" stroke="#14130F" stroke-width="3.6" stroke-linecap="round" stroke-linejoin="round" /><path d="M-24,-262 Q0,-244 24,-262" fill="none" stroke="#14130F" stroke-width="3" stroke-linecap="round" stroke-linejoin="round" /><path d="M-6,-250 L-7,-220" fill="none" stroke="#14130F" stroke-width="2.6" stroke-linecap="round" stroke-linejoin="round" /><path d="M6,-250 L7,-220" fill="none" stroke="#14130F" stroke-width="2.6" stroke-linecap="round" stroke-linejoin="round" /><path d="M-30,-168 Q0,-158 30,-168" fill="none" stroke="#14130F" stroke-width="2.6" stroke-linecap="round" stroke-linejoin="round" /><path d="M-38.0,-246.0 Q-17.5,-198.9 18.0,-196.0" fill="none" stroke="#14130F" stroke-width="24" stroke-linecap="round" stroke-linejoin="round"/><path d="M-38.0,-246.0 Q-17.5,-198.9 18.0,-196.0" fill="none" stroke="#5C6B4E" stroke-width="17" stroke-linecap="round" stroke-linejoin="round"/><path d="M28.2,-192.7 C27.5,-190.7 26.1,-188.5 24.4,-187.3 C22.7,-186.0 20.2,-185.3 18.0,-185.3 C15.9,-185.3 13.4,-186.0 11.7,-187.2 C9.9,-188.5 8.2,-190.6 7.6,-192.6 C6.9,-194.6 7.1,-197.3 7.7,-199.3 C8.4,-201.3 9.9,-203.4 11.6,-204.7 C13.3,-205.9 15.8,-206.8 18.0,-206.8 C20.1,-206.8 22.6,-206.1 24.4,-204.9 C26.2,-203.7 28.1,-201.5 28.7,-199.5 C29.3,-197.5 28.9,-194.8 28.2,-192.7 Z" fill="#E9BC94" stroke="#14130F" stroke-width="3.6" stroke-linecap="round" stroke-linejoin="round" /><path d="M38.0,-246.0 Q20.4,-208.7 -16.0,-202.0" fill="none" stroke="#14130F" stroke-width="24" stroke-linecap="round" stroke-linejoin="round"/><path d="M38.0,-246.0 Q20.4,-208.7 -16.0,-202.0" fill="none" stroke="#5C6B4E" stroke-width="17" stroke-linecap="round" stroke-linejoin="round"/><path d="M-5.3,-198.9 C-5.9,-196.9 -7.7,-194.8 -9.4,-193.5 C-11.2,-192.2 -13.5,-191.2 -15.7,-191.1 C-17.8,-191.0 -20.4,-191.6 -22.3,-192.8 C-24.1,-194.0 -25.9,-196.1 -26.6,-198.2 C-27.4,-200.2 -27.3,-203.0 -26.6,-205.1 C-26.0,-207.2 -24.5,-209.5 -22.8,-210.7 C-21.0,-212.0 -18.5,-212.7 -16.3,-212.7 C-14.2,-212.8 -11.7,-212.1 -9.9,-210.9 C-8.2,-209.8 -6.5,-207.7 -5.8,-205.7 C-5.0,-203.7 -4.7,-200.9 -5.3,-198.9 Z" fill="#E9BC94" stroke="#14130F" stroke-width="3.6" stroke-linecap="round" stroke-linejoin="round" /><path d="M-22.4,-305.8 C-22.1,-304.7 -21.9,-303.2 -22.2,-302.1 C-22.6,-301.0 -23.5,-299.8 -24.5,-299.1 C-25.4,-298.4 -26.9,-298.1 -28.0,-298.1 C-29.2,-298.2 -30.6,-298.5 -31.5,-299.2 C-32.5,-299.8 -33.4,-301.0 -33.8,-302.2 C-34.1,-303.3 -34.0,-304.8 -33.6,-305.8 C-33.2,-306.9 -32.3,-308.1 -31.4,-308.7 C-30.5,-309.4 -29.1,-309.8 -28.0,-309.8 C-26.8,-309.8 -25.4,-309.5 -24.5,-308.8 C-23.6,-308.1 -22.8,-306.9 -22.4,-305.8 Z" fill="#E9BC94" stroke="#14130F" stroke-width="3.6" stroke-linecap="round" stroke-linejoin="round" /><path d="M33.5,-302.1 C33.2,-301.0 32.3,-299.9 31.4,-299.2 C30.4,-298.5 29.0,-297.9 27.9,-297.9 C26.7,-297.9 25.3,-298.5 24.4,-299.2 C23.4,-300.0 22.6,-301.1 22.3,-302.3 C22.0,-303.4 22.0,-304.9 22.4,-306.0 C22.7,-307.1 23.6,-308.2 24.6,-308.9 C25.5,-309.6 26.9,-310.0 28.1,-310.0 C29.3,-310.0 30.8,-309.6 31.7,-308.8 C32.6,-308.1 33.3,-306.8 33.6,-305.7 C33.9,-304.6 33.9,-303.2 33.5,-302.1 Z" fill="#E9BC94" stroke="#14130F" stroke-width="3.6" stroke-linecap="round" stroke-linejoin="round" /><path d="M28.6,-300.8 C27.2,-296.0 24.7,-291.0 21.4,-287.3 C18.0,-283.6 13.2,-280.2 8.4,-278.7 C3.6,-277.2 -2.5,-277.3 -7.4,-278.6 C-12.2,-279.9 -17.2,-283.0 -20.8,-286.5 C-24.5,-290.0 -28.0,-294.8 -29.4,-299.6 C-30.9,-304.4 -30.9,-310.5 -29.6,-315.4 C-28.4,-320.4 -25.6,-325.7 -22.1,-329.4 C-18.5,-333.0 -13.2,-335.9 -8.3,-337.2 C-3.4,-338.5 2.5,-338.6 7.3,-337.2 C12.1,-335.8 16.6,-332.5 20.3,-329.0 C24.0,-325.5 28.2,-321.1 29.6,-316.5 C31.0,-311.8 30.0,-305.7 28.6,-300.8 Z" fill="#E9BC94" transform="translate(2,2)"/><path d="M28.6,-300.8 C27.2,-296.0 24.7,-291.0 21.4,-287.3 C18.0,-283.6 13.2,-280.2 8.4,-278.7 C3.6,-277.2 -2.5,-277.3 -7.4,-278.6 C-12.2,-279.9 -17.2,-283.0 -20.8,-286.5 C-24.5,-290.0 -28.0,-294.8 -29.4,-299.6 C-30.9,-304.4 -30.9,-310.5 -29.6,-315.4 C-28.4,-320.4 -25.6,-325.7 -22.1,-329.4 C-18.5,-333.0 -13.2,-335.9 -8.3,-337.2 C-3.4,-338.5 2.5,-338.6 7.3,-337.2 C12.1,-335.8 16.6,-332.5 20.3,-329.0 C24.0,-325.5 28.2,-321.1 29.6,-316.5 C31.0,-311.8 30.0,-305.7 28.6,-300.8 Z" fill="none" stroke="#14130F" stroke-width="3.6" stroke-linecap="round" stroke-linejoin="round" /><rect x="-13" y="-309" width="7" height="2.6" rx="1.2" fill="#14130F" transform="rotate(-4 -10 -308)"/><rect x="6" y="-309" width="7" height="2.6" rx="1.2" fill="#14130F" transform="rotate(4 10 -308)"/><path d="M-7,-297 L7,-296" fill="none" stroke="#14130F" stroke-width="2.2" stroke-linecap="round" stroke-linejoin="round" /><path d="M-30.0,-314.1 C-32.2,-316.4 -30.5,-329.6 -26.2,-334.3 C-21.9,-339.0 -11.6,-341.6 -4.2,-342.2 C3.3,-342.8 12.7,-341.7 18.5,-337.9 C24.3,-334.1 28.8,-323.7 30.7,-319.3 C32.6,-314.9 34.0,-311.0 29.8,-311.4 C25.7,-311.7 13.2,-319.8 6.0,-321.3 C-1.2,-322.9 -7.4,-321.8 -13.4,-320.6 C-19.4,-319.4 -27.9,-311.8 -30.0,-314.1 Z" fill="#1C1B18" stroke="#14130F" stroke-width="2.6" stroke-linecap="round" stroke-linejoin="round" /><path d="M10.7,-350.8 C10.0,-348.3 8.5,-345.3 6.5,-343.7 C4.6,-342.1 1.4,-341.3 -1.2,-341.2 C-3.7,-341.0 -6.8,-341.6 -9.0,-342.9 C-11.2,-344.2 -13.4,-346.7 -14.4,-349.1 C-15.3,-351.5 -15.4,-354.8 -14.7,-357.2 C-14.0,-359.7 -12.1,-362.2 -10.1,-363.8 C-8.2,-365.4 -5.4,-366.6 -2.8,-366.8 C-0.3,-367.1 2.8,-366.5 5.0,-365.1 C7.2,-363.8 9.3,-361.3 10.2,-358.9 C11.2,-356.5 11.3,-353.3 10.7,-350.8 Z" fill="#1C1B18" stroke="#14130F" stroke-width="2.6" stroke-linecap="round" stroke-linejoin="round" /></g><path d="M39.5,318.2 C76.3,316.6 180.2,318.8 250.2,318.8 C320.1,318.7 422.7,316.6 459.3,318.0 C495.9,319.4 468.2,317.3 470.0,327.0 C471.9,336.6 470.5,360.5 470.4,376.1 C470.2,391.8 470.8,411.5 469.2,420.9 C467.6,430.2 497.3,430.4 460.9,432.2 C424.6,434.0 320.9,431.9 250.8,431.7 C180.8,431.5 77.6,432.8 40.9,431.0 C4.1,429.2 32.0,430.4 30.2,420.9 C28.4,411.4 30.3,389.4 30.1,374.0 C29.9,358.5 27.7,337.5 29.2,328.2 C30.8,318.9 2.7,319.8 39.5,318.2 Z" fill="#EDE0BE" transform="translate(5,4)"/><path d="M39.5,318.2 C76.3,316.6 180.2,318.8 250.2,318.8 C320.1,318.7 422.7,316.6 459.3,318.0 C495.9,319.4 468.2,317.3 470.0,327.0 C471.9,336.6 470.5,360.5 470.4,376.1 C470.2,391.8 470.8,411.5 469.2,420.9 C467.6,430.2 497.3,430.4 460.9,432.2 C424.6,434.0 320.9,431.9 250.8,431.7 C180.8,431.5 77.6,432.8 40.9,431.0 C4.1,429.2 32.0,430.4 30.2,420.9 C28.4,411.4 30.3,389.4 30.1,374.0 C29.9,358.5 27.7,337.5 29.2,328.2 C30.8,318.9 2.7,319.8 39.5,318.2 Z" fill="none" stroke="#14130F" stroke-width="3.6" stroke-linecap="round" stroke-linejoin="round" /><path d="M30.0,320 L61.0,320 L61.0,430 L30.0,430 Z" fill="#A83A28" opacity="0.85"/><path d="M155.8,320 L186.8,320 L186.8,430 L155.8,430 Z" fill="#A83A28" opacity="0.85"/><path d="M281.6,320 L312.6,320 L312.6,430 L281.6,430 Z" fill="#A83A28" opacity="0.85"/><path d="M407.4,320 L438.4,320 L438.4,430 L407.4,430 Z" fill="#A83A28" opacity="0.85"/><path d="M30,318 L470,318" fill="none" stroke="#14130F" stroke-width="3.4" stroke-linecap="round" stroke-linejoin="round" /><path d="M30,432 L470,432" fill="none" stroke="#14130F" stroke-width="3" stroke-linecap="round" stroke-linejoin="round" /><g transform="translate(58,238) scale(0.5)"><path d="M190.8,152.2 C190.5,156.0 185.5,160.6 174.9,163.7 C164.4,166.9 144.4,170.0 127.4,171.3 C110.3,172.5 89.7,172.3 72.7,171.0 C55.7,169.7 36.7,166.7 25.6,163.5 C14.5,160.4 6.1,155.8 6.2,151.9 C6.2,148.0 14.8,143.1 25.9,139.9 C37.0,136.7 55.7,134.0 72.7,132.8 C89.6,131.6 110.2,131.3 127.4,132.6 C144.7,133.9 165.7,137.2 176.3,140.4 C186.8,143.7 191.0,148.3 190.8,152.2 Z" fill="#FFFDF7" transform="translate(3,3)"/><path d="M190.8,152.2 C190.5,156.0 185.5,160.6 174.9,163.7 C164.4,166.9 144.4,170.0 127.4,171.3 C110.3,172.5 89.7,172.3 72.7,171.0 C55.7,169.7 36.7,166.7 25.6,163.5 C14.5,160.4 6.1,155.8 6.2,151.9 C6.2,148.0 14.8,143.1 25.9,139.9 C37.0,136.7 55.7,134.0 72.7,132.8 C89.6,131.6 110.2,131.3 127.4,132.6 C144.7,133.9 165.7,137.2 176.3,140.4 C186.8,143.7 191.0,148.3 190.8,152.2 Z" fill="none" stroke="#14130F" stroke-width="3.6" stroke-linecap="round" stroke-linejoin="round" /><g transform="rotate(-10 100 100)"><path d="M54.7,51.3 C65.1,48.6 85.8,52.7 101.1,52.9 C116.4,53.2 136.4,50.0 146.6,52.6 C156.8,55.2 159.8,60.3 162.2,68.6 C164.6,76.8 161.0,90.8 161.1,101.9 C161.2,113.1 165.1,126.8 162.8,135.3 C160.4,143.8 157.5,150.2 147.0,152.9 C136.5,155.7 115.3,151.9 99.8,151.7 C84.3,151.5 64.0,154.4 53.9,151.7 C43.8,149.1 42.0,144.2 39.2,135.7 C36.4,127.3 37.0,112.1 36.9,101.0 C36.8,89.9 35.6,77.5 38.5,69.2 C41.5,60.9 44.2,54.0 54.7,51.3 Z" fill="#E8A93B" transform="translate(5,4)"/><path d="M54.7,51.3 C65.1,48.6 85.8,52.7 101.1,52.9 C116.4,53.2 136.4,50.0 146.6,52.6 C156.8,55.2 159.8,60.3 162.2,68.6 C164.6,76.8 161.0,90.8 161.1,101.9 C161.2,113.1 165.1,126.8 162.8,135.3 C160.4,143.8 157.5,150.2 147.0,152.9 C136.5,155.7 115.3,151.9 99.8,151.7 C84.3,151.5 64.0,154.4 53.9,151.7 C43.8,149.1 42.0,144.2 39.2,135.7 C36.4,127.3 37.0,112.1 36.9,101.0 C36.8,89.9 35.6,77.5 38.5,69.2 C41.5,60.9 44.2,54.0 54.7,51.3 Z" fill="none" stroke="#14130F" stroke-width="3.6" stroke-linecap="round" stroke-linejoin="round" /><path d="M79.0,56.0 Q79.0,102.0 79.0,148.0" fill="none" stroke="#14130F" stroke-width="3" stroke-linecap="round" stroke-linejoin="round" /><path d="M120.0,56.0 Q120.1,102.0 120.0,148.0" fill="none" stroke="#14130F" stroke-width="3" stroke-linecap="round" stroke-linejoin="round" /><path d="M42.0,85.0 Q100.0,85.3 158.0,85.0" fill="none" stroke="#14130F" stroke-width="3" stroke-linecap="round" stroke-linejoin="round" /><path d="M42.0,118.0 Q100.0,119.5 158.0,118.0" fill="none" stroke="#14130F" stroke-width="3" stroke-linecap="round" stroke-linejoin="round" /></g><path d="M71.3,78.3 C75.9,71.9 90.5,63.5 100.1,62.3 C109.8,61.1 122.7,65.8 129.2,71.2 C135.8,76.7 141.6,89.5 139.6,95.0 C137.7,100.5 125.0,103.9 117.6,104.2 C110.3,104.6 103.0,97.6 95.5,97.0 C88.1,96.5 77.0,103.9 73.0,100.8 C68.9,97.6 66.8,84.7 71.3,78.3 Z" fill="#FFFDF7" transform="translate(3,3)"/><path d="M71.3,78.3 C75.9,71.9 90.5,63.5 100.1,62.3 C109.8,61.1 122.7,65.8 129.2,71.2 C135.8,76.7 141.6,89.5 139.6,95.0 C137.7,100.5 125.0,103.9 117.6,104.2 C110.3,104.6 103.0,97.6 95.5,97.0 C88.1,96.5 77.0,103.9 73.0,100.8 C68.9,97.6 66.8,84.7 71.3,78.3 Z" fill="none" stroke="#14130F" stroke-width="3.2" stroke-linecap="round" stroke-linejoin="round" /><path d="M122.5,69.3 C121.8,72.2 120.2,75.4 118.0,77.4 C115.8,79.4 112.4,80.8 109.4,81.1 C106.4,81.4 102.8,80.7 100.2,79.2 C97.6,77.7 95.0,74.8 93.8,72.1 C92.7,69.3 92.8,65.7 93.4,62.7 C94.1,59.8 95.6,56.4 97.8,54.4 C100.0,52.4 103.6,50.9 106.6,50.7 C109.6,50.4 113.1,51.5 115.7,53.0 C118.3,54.6 121.0,57.2 122.1,59.9 C123.2,62.6 123.2,66.4 122.5,69.3 Z" fill="#A83A28" transform="translate(2,2)"/><path d="M122.5,69.3 C121.8,72.2 120.2,75.4 118.0,77.4 C115.8,79.4 112.4,80.8 109.4,81.1 C106.4,81.4 102.8,80.7 100.2,79.2 C97.6,77.7 95.0,74.8 93.8,72.1 C92.7,69.3 92.8,65.7 93.4,62.7 C94.1,59.8 95.6,56.4 97.8,54.4 C100.0,52.4 103.6,50.9 106.6,50.7 C109.6,50.4 113.1,51.5 115.7,53.0 C118.3,54.6 121.0,57.2 122.1,59.9 C123.2,62.6 123.2,66.4 122.5,69.3 Z" fill="none" stroke="#14130F" stroke-width="3.2" stroke-linecap="round" stroke-linejoin="round" /><path d="M104,52 q4,-10 12,-8 q-2,8 -12,8" fill="#3E8E6A" stroke="#14130F" stroke-width="2.6" stroke-linecap="round" stroke-linejoin="round" /><path d="M104,66 l0,0 M111,72 l0,0 M100,74 l0,0" fill="none" stroke="#14130F" stroke-width="3" stroke-linecap="round" stroke-linejoin="round" /></g><g transform="translate(200,238) scale(0.5)"><path d="M190.8,152.2 C190.5,156.0 185.5,160.6 174.9,163.7 C164.4,166.9 144.4,170.0 127.4,171.3 C110.3,172.5 89.7,172.3 72.7,171.0 C55.7,169.7 36.7,166.7 25.6,163.5 C14.5,160.4 6.1,155.8 6.2,151.9 C6.2,148.0 14.8,143.1 25.9,139.9 C37.0,136.7 55.7,134.0 72.7,132.8 C89.6,131.6 110.2,131.3 127.4,132.6 C144.7,133.9 165.7,137.2 176.3,140.4 C186.8,143.7 191.0,148.3 190.8,152.2 Z" fill="#FFFDF7" transform="translate(3,3)"/><path d="M190.8,152.2 C190.5,156.0 185.5,160.6 174.9,163.7 C164.4,166.9 144.4,170.0 127.4,171.3 C110.3,172.5 89.7,172.3 72.7,171.0 C55.7,169.7 36.7,166.7 25.6,163.5 C14.5,160.4 6.1,155.8 6.2,151.9 C6.2,148.0 14.8,143.1 25.9,139.9 C37.0,136.7 55.7,134.0 72.7,132.8 C89.6,131.6 110.2,131.3 127.4,132.6 C144.7,133.9 165.7,137.2 176.3,140.4 C186.8,143.7 191.0,148.3 190.8,152.2 Z" fill="none" stroke="#14130F" stroke-width="3.6" stroke-linecap="round" stroke-linejoin="round" /><g transform="rotate(-10 100 100)"><path d="M54.7,51.3 C65.1,48.6 85.8,52.7 101.1,52.9 C116.4,53.2 136.4,50.0 146.6,52.6 C156.8,55.2 159.8,60.3 162.2,68.6 C164.6,76.8 161.0,90.8 161.1,101.9 C161.2,113.1 165.1,126.8 162.8,135.3 C160.4,143.8 157.5,150.2 147.0,152.9 C136.5,155.7 115.3,151.9 99.8,151.7 C84.3,151.5 64.0,154.4 53.9,151.7 C43.8,149.1 42.0,144.2 39.2,135.7 C36.4,127.3 37.0,112.1 36.9,101.0 C36.8,89.9 35.6,77.5 38.5,69.2 C41.5,60.9 44.2,54.0 54.7,51.3 Z" fill="#E8A93B" transform="translate(5,4)"/><path d="M54.7,51.3 C65.1,48.6 85.8,52.7 101.1,52.9 C116.4,53.2 136.4,50.0 146.6,52.6 C156.8,55.2 159.8,60.3 162.2,68.6 C164.6,76.8 161.0,90.8 161.1,101.9 C161.2,113.1 165.1,126.8 162.8,135.3 C160.4,143.8 157.5,150.2 147.0,152.9 C136.5,155.7 115.3,151.9 99.8,151.7 C84.3,151.5 64.0,154.4 53.9,151.7 C43.8,149.1 42.0,144.2 39.2,135.7 C36.4,127.3 37.0,112.1 36.9,101.0 C36.8,89.9 35.6,77.5 38.5,69.2 C41.5,60.9 44.2,54.0 54.7,51.3 Z" fill="none" stroke="#14130F" stroke-width="3.6" stroke-linecap="round" stroke-linejoin="round" /><path d="M79.0,56.0 Q79.0,102.0 79.0,148.0" fill="none" stroke="#14130F" stroke-width="3" stroke-linecap="round" stroke-linejoin="round" /><path d="M120.0,56.0 Q120.1,102.0 120.0,148.0" fill="none" stroke="#14130F" stroke-width="3" stroke-linecap="round" stroke-linejoin="round" /><path d="M42.0,85.0 Q100.0,85.3 158.0,85.0" fill="none" stroke="#14130F" stroke-width="3" stroke-linecap="round" stroke-linejoin="round" /><path d="M42.0,118.0 Q100.0,119.5 158.0,118.0" fill="none" stroke="#14130F" stroke-width="3" stroke-linecap="round" stroke-linejoin="round" /></g><path d="M71.3,78.3 C75.9,71.9 90.5,63.5 100.1,62.3 C109.8,61.1 122.7,65.8 129.2,71.2 C135.8,76.7 141.6,89.5 139.6,95.0 C137.7,100.5 125.0,103.9 117.6,104.2 C110.3,104.6 103.0,97.6 95.5,97.0 C88.1,96.5 77.0,103.9 73.0,100.8 C68.9,97.6 66.8,84.7 71.3,78.3 Z" fill="#FFFDF7" transform="translate(3,3)"/><path d="M71.3,78.3 C75.9,71.9 90.5,63.5 100.1,62.3 C109.8,61.1 122.7,65.8 129.2,71.2 C135.8,76.7 141.6,89.5 139.6,95.0 C137.7,100.5 125.0,103.9 117.6,104.2 C110.3,104.6 103.0,97.6 95.5,97.0 C88.1,96.5 77.0,103.9 73.0,100.8 C68.9,97.6 66.8,84.7 71.3,78.3 Z" fill="none" stroke="#14130F" stroke-width="3.2" stroke-linecap="round" stroke-linejoin="round" /><path d="M122.5,69.3 C121.8,72.2 120.2,75.4 118.0,77.4 C115.8,79.4 112.4,80.8 109.4,81.1 C106.4,81.4 102.8,80.7 100.2,79.2 C97.6,77.7 95.0,74.8 93.8,72.1 C92.7,69.3 92.8,65.7 93.4,62.7 C94.1,59.8 95.6,56.4 97.8,54.4 C100.0,52.4 103.6,50.9 106.6,50.7 C109.6,50.4 113.1,51.5 115.7,53.0 C118.3,54.6 121.0,57.2 122.1,59.9 C123.2,62.6 123.2,66.4 122.5,69.3 Z" fill="#A83A28" transform="translate(2,2)"/><path d="M122.5,69.3 C121.8,72.2 120.2,75.4 118.0,77.4 C115.8,79.4 112.4,80.8 109.4,81.1 C106.4,81.4 102.8,80.7 100.2,79.2 C97.6,77.7 95.0,74.8 93.8,72.1 C92.7,69.3 92.8,65.7 93.4,62.7 C94.1,59.8 95.6,56.4 97.8,54.4 C100.0,52.4 103.6,50.9 106.6,50.7 C109.6,50.4 113.1,51.5 115.7,53.0 C118.3,54.6 121.0,57.2 122.1,59.9 C123.2,62.6 123.2,66.4 122.5,69.3 Z" fill="none" stroke="#14130F" stroke-width="3.2" stroke-linecap="round" stroke-linejoin="round" /><path d="M104,52 q4,-10 12,-8 q-2,8 -12,8" fill="#3E8E6A" stroke="#14130F" stroke-width="2.6" stroke-linecap="round" stroke-linejoin="round" /><path d="M104,66 l0,0 M111,72 l0,0 M100,74 l0,0" fill="none" stroke="#14130F" stroke-width="3" stroke-linecap="round" stroke-linejoin="round" /></g><g transform="translate(342,238) scale(0.5)"><path d="M190.8,152.2 C190.5,156.0 185.5,160.6 174.9,163.7 C164.4,166.9 144.4,170.0 127.4,171.3 C110.3,172.5 89.7,172.3 72.7,171.0 C55.7,169.7 36.7,166.7 25.6,163.5 C14.5,160.4 6.1,155.8 6.2,151.9 C6.2,148.0 14.8,143.1 25.9,139.9 C37.0,136.7 55.7,134.0 72.7,132.8 C89.6,131.6 110.2,131.3 127.4,132.6 C144.7,133.9 165.7,137.2 176.3,140.4 C186.8,143.7 191.0,148.3 190.8,152.2 Z" fill="#FFFDF7" transform="translate(3,3)"/><path d="M190.8,152.2 C190.5,156.0 185.5,160.6 174.9,163.7 C164.4,166.9 144.4,170.0 127.4,171.3 C110.3,172.5 89.7,172.3 72.7,171.0 C55.7,169.7 36.7,166.7 25.6,163.5 C14.5,160.4 6.1,155.8 6.2,151.9 C6.2,148.0 14.8,143.1 25.9,139.9 C37.0,136.7 55.7,134.0 72.7,132.8 C89.6,131.6 110.2,131.3 127.4,132.6 C144.7,133.9 165.7,137.2 176.3,140.4 C186.8,143.7 191.0,148.3 190.8,152.2 Z" fill="none" stroke="#14130F" stroke-width="3.6" stroke-linecap="round" stroke-linejoin="round" /><g transform="rotate(-10 100 100)"><path d="M54.7,51.3 C65.1,48.6 85.8,52.7 101.1,52.9 C116.4,53.2 136.4,50.0 146.6,52.6 C156.8,55.2 159.8,60.3 162.2,68.6 C164.6,76.8 161.0,90.8 161.1,101.9 C161.2,113.1 165.1,126.8 162.8,135.3 C160.4,143.8 157.5,150.2 147.0,152.9 C136.5,155.7 115.3,151.9 99.8,151.7 C84.3,151.5 64.0,154.4 53.9,151.7 C43.8,149.1 42.0,144.2 39.2,135.7 C36.4,127.3 37.0,112.1 36.9,101.0 C36.8,89.9 35.6,77.5 38.5,69.2 C41.5,60.9 44.2,54.0 54.7,51.3 Z" fill="#E8A93B" transform="translate(5,4)"/><path d="M54.7,51.3 C65.1,48.6 85.8,52.7 101.1,52.9 C116.4,53.2 136.4,50.0 146.6,52.6 C156.8,55.2 159.8,60.3 162.2,68.6 C164.6,76.8 161.0,90.8 161.1,101.9 C161.2,113.1 165.1,126.8 162.8,135.3 C160.4,143.8 157.5,150.2 147.0,152.9 C136.5,155.7 115.3,151.9 99.8,151.7 C84.3,151.5 64.0,154.4 53.9,151.7 C43.8,149.1 42.0,144.2 39.2,135.7 C36.4,127.3 37.0,112.1 36.9,101.0 C36.8,89.9 35.6,77.5 38.5,69.2 C41.5,60.9 44.2,54.0 54.7,51.3 Z" fill="none" stroke="#14130F" stroke-width="3.6" stroke-linecap="round" stroke-linejoin="round" /><path d="M79.0,56.0 Q79.0,102.0 79.0,148.0" fill="none" stroke="#14130F" stroke-width="3" stroke-linecap="round" stroke-linejoin="round" /><path d="M120.0,56.0 Q120.1,102.0 120.0,148.0" fill="none" stroke="#14130F" stroke-width="3" stroke-linecap="round" stroke-linejoin="round" /><path d="M42.0,85.0 Q100.0,85.3 158.0,85.0" fill="none" stroke="#14130F" stroke-width="3" stroke-linecap="round" stroke-linejoin="round" /><path d="M42.0,118.0 Q100.0,119.5 158.0,118.0" fill="none" stroke="#14130F" stroke-width="3" stroke-linecap="round" stroke-linejoin="round" /></g><path d="M71.3,78.3 C75.9,71.9 90.5,63.5 100.1,62.3 C109.8,61.1 122.7,65.8 129.2,71.2 C135.8,76.7 141.6,89.5 139.6,95.0 C137.7,100.5 125.0,103.9 117.6,104.2 C110.3,104.6 103.0,97.6 95.5,97.0 C88.1,96.5 77.0,103.9 73.0,100.8 C68.9,97.6 66.8,84.7 71.3,78.3 Z" fill="#FFFDF7" transform="translate(3,3)"/><path d="M71.3,78.3 C75.9,71.9 90.5,63.5 100.1,62.3 C109.8,61.1 122.7,65.8 129.2,71.2 C135.8,76.7 141.6,89.5 139.6,95.0 C137.7,100.5 125.0,103.9 117.6,104.2 C110.3,104.6 103.0,97.6 95.5,97.0 C88.1,96.5 77.0,103.9 73.0,100.8 C68.9,97.6 66.8,84.7 71.3,78.3 Z" fill="none" stroke="#14130F" stroke-width="3.2" stroke-linecap="round" stroke-linejoin="round" /><path d="M122.5,69.3 C121.8,72.2 120.2,75.4 118.0,77.4 C115.8,79.4 112.4,80.8 109.4,81.1 C106.4,81.4 102.8,80.7 100.2,79.2 C97.6,77.7 95.0,74.8 93.8,72.1 C92.7,69.3 92.8,65.7 93.4,62.7 C94.1,59.8 95.6,56.4 97.8,54.4 C100.0,52.4 103.6,50.9 106.6,50.7 C109.6,50.4 113.1,51.5 115.7,53.0 C118.3,54.6 121.0,57.2 122.1,59.9 C123.2,62.6 123.2,66.4 122.5,69.3 Z" fill="#A83A28" transform="translate(2,2)"/><path d="M122.5,69.3 C121.8,72.2 120.2,75.4 118.0,77.4 C115.8,79.4 112.4,80.8 109.4,81.1 C106.4,81.4 102.8,80.7 100.2,79.2 C97.6,77.7 95.0,74.8 93.8,72.1 C92.7,69.3 92.8,65.7 93.4,62.7 C94.1,59.8 95.6,56.4 97.8,54.4 C100.0,52.4 103.6,50.9 106.6,50.7 C109.6,50.4 113.1,51.5 115.7,53.0 C118.3,54.6 121.0,57.2 122.1,59.9 C123.2,62.6 123.2,66.4 122.5,69.3 Z" fill="none" stroke="#14130F" stroke-width="3.2" stroke-linecap="round" stroke-linejoin="round" /><path d="M104,52 q4,-10 12,-8 q-2,8 -12,8" fill="#3E8E6A" stroke="#14130F" stroke-width="2.6" stroke-linecap="round" stroke-linejoin="round" /><path d="M104,66 l0,0 M111,72 l0,0 M100,74 l0,0" fill="none" stroke="#14130F" stroke-width="3" stroke-linecap="round" stroke-linejoin="round" /></g><line x1="465.2" y1="190.0" x2="486.8" y2="190.0" stroke="#14130F" stroke-width="2.9" stroke-linecap="round"/><line x1="470.6" y1="180.6" x2="481.4" y2="199.4" stroke="#14130F" stroke-width="2.9" stroke-linecap="round"/><line x1="481.4" y1="180.6" x2="470.6" y2="199.4" stroke="#14130F" stroke-width="2.9" stroke-linecap="round"/></svg>