<svg xmlns="http://www.w3.org/2000/svg" width="200" height="180" viewBox="0 0 200 180" xmlns:c2pa="http://c2pa.org/manifest"><metadata><c2pa:manifest>AAAWgmp1bWIAAAAeanVtZGMycGEAEQAQgAAAqgA4m3EDYzJwYQAAABZcanVtYgAAAEdqdW1kYzJtYQARABCAAACqADibcQN1cm46YzJwYTpjZWJhYjZlMy1hNWQ3LTQxMzMtOWE4Yy03ZGM4MGRmNzUwMDYAAAADl2p1bWIAAAApanVtZGMyYXMAEQAQgAAAqgA4m3EDYzJwYS5hc3NlcnRpb25zAAAAALxqdW1iAAAARGp1bWRjYm9yABEAEIAAAKoAOJtxE2MycGEuaW5ncmVkaWVudC52MwAAAAAYYzJzaPBSFmeLVSFSFgM0wTElDNQAAABwY2JvcqNpZGM6Zm9ybWF0bWltYWdlL3N2Zyt4bWxqaW5zdGFuY2VJRHgseG1wOmlpZDo5NmU1ZWI3My0wMzhkLTQzMWQtOWIyYi0xYWI1ZTI2ZWU3ZTBscmVsYXRpb25zaGlwaHBhcmVudE9mAAAB4mp1bWIAAABBanVtZGNib3IAEQAQgAAAqgA4m3ETYzJwYS5hY3Rpb25zLnYyAAAAABhjMnNoJpxBAPhtiaWmjE0qLSeOtgAAAZljYm9yomdhY3Rpb25zgqJmYWN0aW9ua2MycGEub3BlbmVkanBhcmFtZXRlcnOha2luZ3JlZGllbnRzgaJjdXJseC1zZWxmI2p1bWJmPWMycGEuYXNzZXJ0aW9ucy9jMnBhLmluZ3JlZGllbnQudjNkaGFzaFggImwzkEU5bINHiFLX3g6C9F5pWMa9h/FL38tqCIKqcsOkZmFjdGlvbngdY29tLmFudGhyb3BpYy5jbGF1ZGUucHJvdmlkZWRqcGFyYW1ldGVyc6F4H2NvbS5hbnRocm9waWMub3JpZ2luLWNvbmZpZGVuY2VndW5rbm93bmtkZXNjcmlwdGlvbnhmQ2xhdWRlIHByb3ZpZGVkIHRoaXMgZmlsZSBhdCB0aGUgcmVxdWVzdCBvZiBhIHVzZXIgYW5kIG1heSBoYXZlIGNyZWF0ZWQgb3IgbW9kaWZpZWQgdGhlIGZpbGUgY29udGVudHMubXNvZnR3YXJlQWdlbnShZG5hbWVmQ2xhdWRlcmFsbEFjdGlvbnNJbmNsdWRlZPUAAADIanVtYgAAAEBqdW1kY2JvcgARABCAAACqADibcRNjMnBhLmhhc2guZGF0YQAAAAAYYzJzaF0KVdaC3am098XW58i9ZtEAAACAY2JvcqVjYWxnZnNoYTI1NmNwYWRNAAAAAAAAAAAAAAAAAGRoYXNoWCCLLlRuRWG3tbd4jgQjmjxwbVHtszNF0BBr+vf47Kaw62RuYW1lbmp1bWJmIG1hbmlmZXN0amV4Y2x1c2lvbnOBomVzdGFydBiWZmxlbmd0aBkeBAAAAj5qdW1iAAAAJ2p1bWRjMmNsABEAEIAAAKoAOJtxA2MycGEuY2xhaW0udjIAAAACD2Nib3KlY2FsZ2ZzaGEyNTZpc2lnbmF0dXJleE1zZWxmI2p1bWJmPS9jMnBhL3VybjpjMnBhOmNlYmFiNmUzLWE1ZDctNDEzMy05YThjLTdkYzgwZGY3NTAwNi9jMnBhLnNpZ25hdHVyZWppbnN0YW5jZUlEeCx4bXA6aWlkOmE3YjI4M2Q2LTY3MTktNDM2MS1iMzExLWRiYWM0NTNjZWNmN3JjcmVhdGVkX2Fzc2VydGlvbnODomN1cmx4LXNlbGYjanVtYmY9YzJwYS5hc3NlcnRpb25zL2MycGEuaW5ncmVkaWVudC52M2RoYXNoWCAibDOQRTlsg0eIUtfeDoL0XmlYxr2H8Uvfy2oIgqpyw6JjdXJseCpzZWxmI2p1bWJmPWMycGEuYXNzZXJ0aW9ucy9jMnBhLmFjdGlvbnMudjJkaGFzaFggUQz4LN5RXr5qOXKf/G3mYHThqIGkZvmVWpRV+df4OI+iY3VybHgpc2VsZiNqdW1iZj1jMnBhLmFzc2VydGlvbnMvYzJwYS5oYXNoLmRhdGFkaGFzaFggYRf/BdhPepfUFRnTaa+8FvLGu7VNkk5hFl406CocL0d0Y2xhaW1fZ2VuZXJhdG9yX2luZm+jZG5hbWVvQW50aHJvcGljIEZpbGVzZ3ZlcnNpb25lMS4wLjBrc3BlY1ZlcnNpb25lMi40LjAAABA4anVtYgAAAChqdW1kYzJjcwARABCAAACqADibcQNjMnBhLnNpZ25hdHVyZQAAABAIY2JvctKEWQISogEmGCFZAgowggIGMIIBjaADAgECAhRA5aAK7sI50L64g/oGQgU9Z1UTADAKBggqhkjOPQQDAzBJMRcwFQYDVQQKEw5BbnRocm9waWMsIFBCQzEuMCwGA1UEAxMlQW50aHJvcGljIENvbnRlbnQgQ3JlZGVudGlhbHMgUm9vdCBDQTAeFw0yNjA4MDcxODQzNTZaFw0yODA4MDYxOTQzNTZaMEQxFzAVBgNVBAoTDkFudGhyb3BpYywgUEJDMSkwJwYDVQQDEyBBbnRocm9waWMgQ2xhdWRlIENvbnRlbnQgU2lnbmluZzBZMBMGByqGSM49AgEGCCqGSM49AwEHA0IABJh6CmvLUBgFFNU0vUKlOVtE6djd17L5SuwX0LemFisBM3dkd/3cyjxFA3Qo5S46fX0/ihY0VZ7mfb9KF703t5OjWDBWMA4GA1UdDwEB/wQEAwIHgDAVBgNVHSUEDjAMBgorBgEEAYPoXgIBMAwGA1UdEwEB/wQCMAAwHwYDVR0jBBgwFoAUzlHiBIFOZFsj+OPEz5o+nMHXXMIwCgYIKoZIzj0EAwMDZwAwZAIwMXMdFJ4BetLLVY7ORuE9noqbbAZOZn/aArXyTwFAZfKrPzxF2vPoJNf1+UCdg1XGAjBwX1zd9WGqYkqmL5SFqw1QySjr1zJfpJM9+1rdDwSPLMOPOjKuiXjoU/pUUeG9RwmhY3BhZFkNngAAAAAAAAAAAAAAAAAAAAAAAAAAAAAAAAAAAAAAAAAAAAAAAAAAAAAAAAAAAAAAAAAAAAAAAAAAAAAAAAAAAAAAAAAAAAAAAAAAAAAAAAAAAAAAAAAAAAAAAAAAAAAAAAAAAAAAAAAAAAAAAAAAAAAAAAAAAAAAAAAAAAAAAAAAAAAAAAAAAAAAAAAAAAAAAAAAAAAAAAAAAAAAAAAAAAAAAAAAAAAAAAAAAAAAAAAAAAAAAAAAAAAAAAAAAAAAAAAAAAAAAAAAAAAAAAAAAAAAAAAAAAAAAAAAAAAAAAAAAAAAAAAAAAAAAAAAAAAAAAAAAAAAAAAAAAAAAAAAAAAAAAAAAAAAAAAAAAAAAAAAAAAAAAAAAAAAAAAAAAAAAAAAAAAAAAAAAAAAAAAAAAAAAAAAAAAAAAAAAAAAAAAAAAAAAAAAAAAAAAAAAAAAAAAAAAAAAAAAAAAAAAAAAAAAAAAAAAAAAAAAAAAAAAAAAAAAAAAAAAAAAAAAAAAAAAAAAAAAAAAAAAAAAAAAAAAAAAAAAAAAAAAAAAAAAAAAAAAAAAAAAAAAAAAAAAAAAAAAAAAAAAAAAAAAAAAAAAAAAAAAAAAAAAAAAAAAAAAAAAAAAAAAAAAAAAAAAAAAAAAAAAAAAAAAAAAAAAAAAAAAAAAAAAAAAAAAAAAAAAAAAAAAAAAAAAAAAAAAAAAAAAAAAAAAAAAAAAAAAAAAAAAAAAAAAAAAAAAAAAAAAAAAAAAAAAAAAAAAAAAAAAAAAAAAAAAAAAAAAAAAAAAAAAAAAAAAAAAAAAAAAAAAAAAAAAAAAAAAAAAAAAAAAAAAAAAAAAAAAAAAAAAAAAAAAAAAAAAAAAAAAAAAAAAAAAAAAAAAAAAAAAAAAAAAAAAAAAAAAAAAAAAAAAAAAAAAAAAAAAAAAAAAAAAAAAAAAAAAAAAAAAAAAAAAAAAAAAAAAAAAAAAAAAAAAAAAAAAAAAAAAAAAAAAAAAAAAAAAAAAAAAAAAAAAAAAAAAAAAAAAAAAAAAAAAAAAAAAAAAAAAAAAAAAAAAAAAAAAAAAAAAAAAAAAAAAAAAAAAAAAAAAAAAAAAAAAAAAAAAAAAAAAAAAAAAAAAAAAAAAAAAAAAAAAAAAAAAAAAAAAAAAAAAAAAAAAAAAAAAAAAAAAAAAAAAAAAAAAAAAAAAAAAAAAAAAAAAAAAAAAAAAAAAAAAAAAAAAAAAAAAAAAAAAAAAAAAAAAAAAAAAAAAAAAAAAAAAAAAAAAAAAAAAAAAAAAAAAAAAAAAAAAAAAAAAAAAAAAAAAAAAAAAAAAAAAAAAAAAAAAAAAAAAAAAAAAAAAAAAAAAAAAAAAAAAAAAAAAAAAAAAAAAAAAAAAAAAAAAAAAAAAAAAAAAAAAAAAAAAAAAAAAAAAAAAAAAAAAAAAAAAAAAAAAAAAAAAAAAAAAAAAAAAAAAAAAAAAAAAAAAAAAAAAAAAAAAAAAAAAAAAAAAAAAAAAAAAAAAAAAAAAAAAAAAAAAAAAAAAAAAAAAAAAAAAAAAAAAAAAAAAAAAAAAAAAAAAAAAAAAAAAAAAAAAAAAAAAAAAAAAAAAAAAAAAAAAAAAAAAAAAAAAAAAAAAAAAAAAAAAAAAAAAAAAAAAAAAAAAAAAAAAAAAAAAAAAAAAAAAAAAAAAAAAAAAAAAAAAAAAAAAAAAAAAAAAAAAAAAAAAAAAAAAAAAAAAAAAAAAAAAAAAAAAAAAAAAAAAAAAAAAAAAAAAAAAAAAAAAAAAAAAAAAAAAAAAAAAAAAAAAAAAAAAAAAAAAAAAAAAAAAAAAAAAAAAAAAAAAAAAAAAAAAAAAAAAAAAAAAAAAAAAAAAAAAAAAAAAAAAAAAAAAAAAAAAAAAAAAAAAAAAAAAAAAAAAAAAAAAAAAAAAAAAAAAAAAAAAAAAAAAAAAAAAAAAAAAAAAAAAAAAAAAAAAAAAAAAAAAAAAAAAAAAAAAAAAAAAAAAAAAAAAAAAAAAAAAAAAAAAAAAAAAAAAAAAAAAAAAAAAAAAAAAAAAAAAAAAAAAAAAAAAAAAAAAAAAAAAAAAAAAAAAAAAAAAAAAAAAAAAAAAAAAAAAAAAAAAAAAAAAAAAAAAAAAAAAAAAAAAAAAAAAAAAAAAAAAAAAAAAAAAAAAAAAAAAAAAAAAAAAAAAAAAAAAAAAAAAAAAAAAAAAAAAAAAAAAAAAAAAAAAAAAAAAAAAAAAAAAAAAAAAAAAAAAAAAAAAAAAAAAAAAAAAAAAAAAAAAAAAAAAAAAAAAAAAAAAAAAAAAAAAAAAAAAAAAAAAAAAAAAAAAAAAAAAAAAAAAAAAAAAAAAAAAAAAAAAAAAAAAAAAAAAAAAAAAAAAAAAAAAAAAAAAAAAAAAAAAAAAAAAAAAAAAAAAAAAAAAAAAAAAAAAAAAAAAAAAAAAAAAAAAAAAAAAAAAAAAAAAAAAAAAAAAAAAAAAAAAAAAAAAAAAAAAAAAAAAAAAAAAAAAAAAAAAAAAAAAAAAAAAAAAAAAAAAAAAAAAAAAAAAAAAAAAAAAAAAAAAAAAAAAAAAAAAAAAAAAAAAAAAAAAAAAAAAAAAAAAAAAAAAAAAAAAAAAAAAAAAAAAAAAAAAAAAAAAAAAAAAAAAAAAAAAAAAAAAAAAAAAAAAAAAAAAAAAAAAAAAAAAAAAAAAAAAAAAAAAAAAAAAAAAAAAAAAAAAAAAAAAAAAAAAAAAAAAAAAAAAAAAAAAAAAAAAAAAAAAAAAAAAAAAAAAAAAAAAAAAAAAAAAAAAAAAAAAAAAAAAAAAAAAAAAAAAAAAAAAAAAAAAAAAAAAAAAAAAAAAAAAAAAAAAAAAAAAAAAAAAAAAAAAAAAAAAAAAAAAAAAAAAAAAAAAAAAAAAAAAAAAAAAAAAAAAAAAAAAAAAAAAAAAAAAAAAAAAAAAAAAAAAAAAAAAAAAAAAAAAAAAAAAAAAAAAAAAAAAAAAAAAAAAAAAAAAAAAAAAAAAAAAAAAAAAAAAAAAAAAAAAAAAAAAAAAAAAAAAAAAAAAAAAAAAAAAAAAAAAAAAAAAAAAAAAAAAAAAAAAAAAAAAAAAAAAAAAAAAAAAAAAAAAAAAAAAAAAAAAAAAAAAAAAAAAAAAAAAAAAAAAAAAAAAAAAAAAAAAAAAAAAAAAAAAAAAAAAAAAAAAAAAAAAAAAAAAAAAAAAAAAAAAAAAAAAAAAAAAAAAAAAAAAAAAAAAAAAAAAAAAAAAAAAAAAAAAAAAAAAAAAAAAAAAAAAAAAAAAAAAAAAAAAAAAAAAAAAAAAAAAAAAAAAAAAAAAAAAAAAAAAAAAAAAAAAAAAAAAAAAAAAAAAAAAAAAAAAAAAAAAAAAAAAAAAAAAAAAAAAAAAAAAAAAAAAAAAAAAAAAAAAAAAAAAAAAAAAAAAAAAAAAAAAAAAAAAAAAAAAAAAAAAAAAAAAAAAAAAAAAAAAAAAAAAAAAAAAAAAAAAAAAAAAAAAAAAAAAAAAAAAAAAAAAAAAAAAAAAAAAAAAAAAAAAAAAAAAAAAAAAAAAAAAAAAAAAAAAAAAAAAAAAAAAAAAAAAAAAAAAAAAAAAAAAAAAAAAAAAAAAAAAAAAAAAAAAAAAAAAAAAAAAAAAAAAAAAAAAAAAAAAAAAAAAAAAAAAAAAAAAAAAAAAAAAAAAAAAAAAAAAAAAAAAAAAAAAAAAAAAAAAAAAAAAAAAAAAAAAAAAAAAAAAAAAAAAAAAAAAAAAAAAAAAAAAAAAAAAAAAAAAAAAAAAAAAAAAAAAAAAAAAAAAAAAAAAAAAAAAAAAAAAAAAAAAAAAAAAAAAAAAAAAAAAAAAAAAAAAAAAAAAAAAAAAAAAAAAAAAAAAAAAAAAAAAAAAAAAAAAAAAAAAAAAAAAAAAAAAAAAAAAAAAAAAAAAAAAAAAAAAAAAAAAAAAAAAAAAAAAAAAAAAAAAAAAAAAAAAAAAAAAAAAAAAAAAAAAAAAAAAAAAAAAAAAAAAAAAAAAAAAAAAAAAAAAAAAAAAAAAAAAAAAAAAAAAAAAAAAAAAAAAAAAAAAAAAAAAAAAAAAAAAAAAAAAAAAAAAAAAAAAAAAAAAAAAAAAAAAAAAAAAAAAAAAAAAAAAAAAAAAAAAAAAAAAAAAAAAAAAAAAAAAAAAAAAAAAAAAAAAAAAAAAAAAAAAAAAAAAAAAAAAAAAAAAAAAAAAAAAAAAAAAAAAAAAAAAAAAAAAAAAAAAAAAAAAAAAAAAAAAAAAAAAAAAAAAAAAAAAAAAAAAAAAAAAAAAAAAAAAAAAAAAAAAAAAAAAAAAAAAAAAAAAAAAAAAAAAAAAAAAAAAAAAAAAAAAAAAAAAAAAAAAAAAAAAAAAAAAAAAAAAAAAAAAAAAAAAAAAAAAAAAAAAAAAAAAAAAAAAAAAAAAAAAAAAAAAAAAAAAAAAAAAAAAAAAAAAAAAAAAAAAAAAAAAAAAAAAAAAAAAAAAAAAAAAAAAAAAAAAAAAAAAAAAAAAAAAAAAAAAAAAAAAAAAAAAAAAAAAAAAAAAAAAAAAAAAAAAAAAAAAAAAAAAAAAAAAAAAAAAAAAAAAAAAAAAAAAAAAAAAAAAAAAAAAAAAAAAAAAAAAAAAAAAAAAAAAAAAAAAAAAAAAAAAAAAAAAAAAAAAAAAAAAAAAAAAAAAAAAAPZYQH/KhpUU0AUSz9Zk2ElmVIJo1H0NNps72hIwTpZAe3vGYVtM+WUp1eBXmNSPc9+sEG0wzcaas/Nvd7rgP0qYdFo=</c2pa:manifest></metadata><path d="M165.9,51.8 C166.7,57.4 164.5,64.3 161.7,69.6 C159.0,75.0 154.7,81.0 149.6,83.7 C144.4,86.5 136.7,87.2 130.7,86.1 C124.8,85.1 117.8,81.8 113.8,77.5 C109.8,73.2 107.4,66.0 106.7,60.2 C106.1,54.3 107.2,47.3 110.0,42.2 C112.7,37.1 118.0,32.3 123.2,29.8 C128.3,27.2 135.4,26.0 141.1,27.0 C146.7,28.0 152.8,31.6 156.9,35.7 C161.1,39.9 165.1,46.1 165.9,51.8 Z" fill="#F2C200" transform="translate(4,3)"/><path d="M165.9,51.8 C166.7,57.4 164.5,64.3 161.7,69.6 C159.0,75.0 154.7,81.0 149.6,83.7 C144.4,86.5 136.7,87.2 130.7,86.1 C124.8,85.1 117.8,81.8 113.8,77.5 C109.8,73.2 107.4,66.0 106.7,60.2 C106.1,54.3 107.2,47.3 110.0,42.2 C112.7,37.1 118.0,32.3 123.2,29.8 C128.3,27.2 135.4,26.0 141.1,27.0 C146.7,28.0 152.8,31.6 156.9,35.7 C161.1,39.9 165.1,46.1 165.9,51.8 Z" fill="none" stroke="#14130F" stroke-width="3.6" stroke-linecap="round" stroke-linejoin="round" /><path d="M175.6,61.6 Q183.5,62.7 191.5,63.8" fill="none" stroke="#14130F" stroke-width="4" stroke-linecap="round" stroke-linejoin="round" /><path d="M164.8,83.8 Q170.9,88.9 176.3,94.9" fill="none" stroke="#14130F" stroke-width="4" stroke-linecap="round" stroke-linejoin="round" /><path d="M142.9,95.4 Q145.8,103.0 145.7,111.1" fill="none" stroke="#14130F" stroke-width="4" stroke-linecap="round" stroke-linejoin="round" /><path d="M118.5,92.0 Q115.4,99.3 111.5,106.3" fill="none" stroke="#14130F" stroke-width="4" stroke-linecap="round" stroke-linejoin="round" /><path d="M100.7,74.8 Q93.8,78.8 86.6,82.3" fill="none" stroke="#14130F" stroke-width="4" stroke-linecap="round" stroke-linejoin="round" /><path d="M96.4,50.4 Q88.3,50.6 80.5,48.2" fill="none" stroke="#14130F" stroke-width="4" stroke-linecap="round" stroke-linejoin="round" /><path d="M107.2,28.2 Q100.9,23.2 95.7,17.1" fill="none" stroke="#14130F" stroke-width="4" stroke-linecap="round" stroke-linejoin="round" /><path d="M129.1,16.6 Q127.1,8.8 126.3,0.9" fill="none" stroke="#14130F" stroke-width="4" stroke-linecap="round" stroke-linejoin="round" /><path d="M153.5,20.0 Q156.8,12.7 160.5,5.7" fill="none" stroke="#14130F" stroke-width="4" stroke-linecap="round" stroke-linejoin="round" /><path d="M171.3,37.2 Q178.4,33.4 185.4,29.7" fill="none" stroke="#14130F" stroke-width="4" stroke-linecap="round" stroke-linejoin="round" /><path d="M54.2,62.8 C58.0,60.2 59.6,61.3 62.5,61.0 C65.4,60.8 67.6,58.8 71.5,61.3 C75.5,63.8 83.8,67.7 86.2,75.9 C88.5,84.2 85.5,99.0 85.6,111.0 C85.6,123.1 88.8,139.7 86.6,148.3 C84.4,156.9 76.1,160.4 72.3,162.5 C68.5,164.6 67.0,161.0 63.9,160.9 C60.7,160.8 57.1,164.1 53.3,161.9 C49.4,159.8 42.7,156.4 40.5,148.0 C38.3,139.6 40.2,123.4 40.0,111.5 C39.8,99.7 37.0,85.0 39.4,76.9 C41.7,68.8 50.3,65.5 54.2,62.8 Z" fill="#BFE0F0" transform="translate(4,4)"/><path d="M54.2,62.8 C58.0,60.2 59.6,61.3 62.5,61.0 C65.4,60.8 67.6,58.8 71.5,61.3 C75.5,63.8 83.8,67.7 86.2,75.9 C88.5,84.2 85.5,99.0 85.6,111.0 C85.6,123.1 88.8,139.7 86.6,148.3 C84.4,156.9 76.1,160.4 72.3,162.5 C68.5,164.6 67.0,161.0 63.9,160.9 C60.7,160.8 57.1,164.1 53.3,161.9 C49.4,159.8 42.7,156.4 40.5,148.0 C38.3,139.6 40.2,123.4 40.0,111.5 C39.8,99.7 37.0,85.0 39.4,76.9 C41.7,68.8 50.3,65.5 54.2,62.8 Z" fill="none" stroke="#14130F" stroke-width="3.6" stroke-linecap="round" stroke-linejoin="round" /><path d="M58.2,40.0 C60.1,39.2 61.1,39.2 62.9,39.1 C64.8,39.0 67.3,38.4 69.2,39.3 C71.1,40.2 73.5,42.0 74.3,44.5 C75.1,46.9 74.0,51.1 73.9,53.9 C73.8,56.6 74.4,59.1 73.5,61.1 C72.7,63.1 70.2,65.1 68.6,66.0 C67.0,66.8 65.6,66.0 63.9,66.0 C62.1,66.0 60.1,66.6 58.1,65.8 C56.1,65.0 52.9,63.4 51.9,61.3 C50.9,59.3 52.1,56.3 52.0,53.4 C51.9,50.5 50.5,46.1 51.5,43.8 C52.5,41.6 56.3,40.8 58.2,40.0 Z" fill="#D8261C" transform="translate(3,3)"/><path d="M58.2,40.0 C60.1,39.2 61.1,39.2 62.9,39.1 C64.8,39.0 67.3,38.4 69.2,39.3 C71.1,40.2 73.5,42.0 74.3,44.5 C75.1,46.9 74.0,51.1 73.9,53.9 C73.8,56.6 74.4,59.1 73.5,61.1 C72.7,63.1 70.2,65.1 68.6,66.0 C67.0,66.8 65.6,66.0 63.9,66.0 C62.1,66.0 60.1,66.6 58.1,65.8 C56.1,65.0 52.9,63.4 51.9,61.3 C50.9,59.3 52.1,56.3 52.0,53.4 C51.9,50.5 50.5,46.1 51.5,43.8 C52.5,41.6 56.3,40.8 58.2,40.0 Z" fill="none" stroke="#14130F" stroke-width="3.4" stroke-linecap="round" stroke-linejoin="round" /><path d="M44,104 q20,10 38,0" fill="none" stroke="#14130F" stroke-width="3" stroke-linecap="round" stroke-linejoin="round" /><path d="M54,84 l0,26" fill="none" stroke="#14130F" stroke-width="2.8" stroke-linecap="round" stroke-linejoin="round" /></svg>